<svg width="800px" height="800px" viewBox="0 0 24 24" fill="none" xmlns="http://www.w3.org/2000/svg"><path d="M12 16C14.2091 16 16 14.2091 16 12C16 9.79086 14.2091 8 12 8C9.79086 8 8 9.79086 8 12C8 14.2091 9.79086 16 12 16Z" stroke="#F5F1E6" stroke-width="2" stroke-miterlimit="10"/><path d="M17.6361 7H17.6461" stroke="#F5F1E6" stroke-width="2" stroke-linecap="round" stroke-linejoin="round"/><path d="M12 3.42422C12.6734 3.42422 13.3388 3.46348 14 3.54042C17.59 3.84842 20.151 6.40942 20.459 9.99942C20.536 10.6608 20.5758 11.3266 20.5758 11.9994C20.5758 12.6728 20.5365 13.3382 20.4596 13.9994C20.1516 17.5894 17.5906 20.1504 14.0006 20.4584C13.3392 20.5354 12.6734 20.5752 12.0006 20.5752C11.3272 20.5752 10.6618 20.5359 10.0006 20.459C6.41058 20.151 3.84958 17.59 3.54158 14C3.46463 13.3386 3.42485 12.6728 3.42485 11.9994C3.42485 11.326 3.46411 10.6606 3.54105 9.99942C3.84905 6.40942 6.41005 3.84842 9.99905 3.54042C10.6604 3.46348 11.3262 3.42422 11.999 3.42422H12Z" stroke="#F5F1E6" stroke-width="2"/></svg>