<svg width="101" height="90" viewBox="0 0 101 90" fill="none" xmlns="http://www.w3.org/2000/svg">
<path d="M68.9094 81.5727L57.9779 84.7719L57.9271 84.7872L57.8739 84.7946L40.4591 87.3185L40.4507 87.3199L40.4418 87.3209L23.0695 89.4268L20.4229 74.0784L21.9155 73.8211L24.3166 87.7498L40.2575 85.8174L57.6042 83.3034L67.3172 80.4606L66.6005 69.7094L68.1118 69.6089L68.9094 81.5727Z" fill="#F5F1E6"/>
<path d="M62.5601 0V25.4912H87.6077L90.7507 28.6338L69.491 34.8868L81.9541 44.5801L81.9999 44.6156L82.0394 44.6575L95.1635 58.5388L95.2079 58.5851L95.2434 58.6389L101 67.2738L67.9273 70.1605L67.9278 70.161L28.5573 73.6939L0 76.6299L12.434 57.1679L17.9171 46.7002C18.4741 43.1689 21.1705 29.2979 27.7498 0.588085L27.8844 0H62.5601ZM29.0916 1.51433C22.5267 30.1901 19.8896 43.8315 19.393 47.0596L19.3737 47.1838L19.3156 47.2957L13.763 57.896L13.7477 57.9246L13.73 57.9522L2.96408 74.8026L28.4104 72.187L28.4203 72.186L67.7928 68.6526H67.7942L98.3223 65.9872L94.0184 59.5316L80.9785 45.739L66.2291 34.2676L87.8758 27.9007L86.9806 27.0056H61.0458V1.51433H29.0916Z" fill="#F5F1E6"/>
<path d="M67.9837 35.3242L55.7488 37.3418L44.2859 39.6104L44.2366 39.6202L44.1863 39.6232L28.0912 40.6342H20.1592V39.1199H28.0433L44.0399 38.1148L55.4713 35.8531L55.4831 35.8507L55.495 35.8487L67.7372 33.8296L67.9837 35.3242Z" fill="#F5F1E6"/>
<path d="M40.4229 7.91588C41.6221 7.93978 42.5521 8.46664 43.1449 9.01416C44.0682 9.86694 44.3413 10.9113 44.3881 11.0732C44.5679 11.6952 44.6425 12.4134 44.6868 12.8537C44.7291 13.2737 44.7658 13.7015 44.8032 14.1388C44.9142 14.0936 45.0333 14.0499 45.1606 14.0112C45.7894 13.8198 46.845 13.6723 47.9935 14.1733C48.8774 14.5589 49.4429 15.1663 49.7888 15.698C49.8887 15.6168 49.9989 15.5346 50.1186 15.4545C50.5497 15.1661 51.8717 14.4046 53.5953 14.9083C54.6439 15.2148 55.3125 15.837 55.7194 16.3738C56.0484 16.3627 56.4028 16.3916 56.7803 16.4779C58.9186 16.9664 59.5983 18.7916 59.6714 18.9786C59.8538 19.4449 59.9118 19.8479 59.9302 19.9792C59.9522 20.1366 59.9657 20.2927 59.9741 20.4239L59.9874 20.7187L59.9888 20.763L59.9898 20.8074C60.0076 22.2615 60.0767 23.6843 60.1648 24.4907L60.1693 24.5336L60.1732 24.5765C60.2255 25.1722 60.2255 25.5603 60.2255 25.8596C60.2255 27.9498 58.6376 29.6689 56.6023 29.8766C56.5426 29.9415 56.4789 30.0069 56.4106 30.0718C55.8013 30.6504 54.4387 31.5212 52.6326 31.0774C51.1772 30.7198 50.4413 29.7138 50.2428 29.4275C49.9445 28.9974 49.7869 28.59 49.742 28.4747C49.6674 28.2834 49.6078 28.0986 49.5611 27.9413C49.5168 27.7923 49.474 27.6338 49.4329 27.4676C47.5813 27.8069 46.092 26.9379 45.2656 26.0637C44.9053 25.6826 44.6339 25.274 44.4305 24.9033C43.6789 25.1369 42.7377 25.2529 41.703 25.0024C40.6259 24.7415 39.7893 24.1657 39.1723 23.5235C39.1661 23.532 39.1607 23.5412 39.1545 23.5497C39.0267 23.724 38.8431 23.958 38.6069 24.1969C38.4098 24.3962 37.9627 24.8216 37.2808 25.134C36.5249 25.4803 35.3015 25.7524 33.9712 25.2124C32.7488 24.7161 32.1259 23.8058 31.857 23.3086C31.3764 22.4201 31.3121 21.5346 31.2925 21.2796C31.2346 20.5251 31.2964 19.6489 31.3645 18.9263C31.5102 17.3804 31.8165 15.3212 32.097 13.4275C32.4239 11.2213 34.4772 9.69786 36.6834 10.0247C36.6839 10.0248 36.6844 10.0251 36.6849 10.0252C36.6854 10.0244 36.6858 10.0235 36.6863 10.0227C36.7936 9.85372 37.2234 9.16204 38.0153 8.62867C38.4722 8.32101 39.3052 7.8936 40.4229 7.91588Z" fill="#F5F1E6"/>
<path d="M46.9897 19.6287C47.3539 19.4003 49.2388 18.3383 51.2927 19.6287C52.9196 20.651 53.1202 22.3123 53.1417 22.4548C53.2077 22.8919 53.1859 23.2418 53.1772 23.3653C53.1689 23.4824 53.1561 23.5846 53.1451 23.6635C54.2429 24.3057 54.7269 25.2478 54.9414 25.8783C55.3592 26.0129 55.7972 26.2317 56.2167 26.5773C56.7417 26.7346 57.2857 27.0182 57.8 27.4952C58.9397 28.552 59.0673 29.8664 59.0861 30.0161C59.111 30.2133 59.1169 30.3743 59.1191 30.4568C59.1214 30.5382 59.1216 30.6119 59.1216 30.6194C59.1216 32.1688 58.2484 33.5136 56.9679 34.1908C56.9222 34.2616 56.8799 34.3318 56.8343 34.4072C56.8288 34.4165 56.6891 34.6541 56.5494 34.8509C56.5228 34.8885 56.2286 35.3232 55.7306 35.7185C55.4978 35.9033 54.7933 36.4325 53.7125 36.5688C52.9753 36.6618 52.2738 36.5479 51.6545 36.2898C51.4862 36.3607 51.2938 36.4301 51.0787 36.485C50.6215 36.6018 49.3972 36.8132 48.1373 36.1212C47.4318 36.4157 45.8277 36.8558 44.2204 35.7204C44.1303 35.7737 44.0331 35.8278 43.9286 35.8787C43.3796 36.1458 42.0101 36.6372 40.4493 35.9206C39.77 35.6086 39.3263 35.1793 39.077 34.8923C38.8462 34.6265 38.7016 34.3859 38.6816 34.3535C38.268 33.6822 38.1315 33.0444 38.0753 32.6361C38.0287 32.2971 38.0184 31.9622 38.0147 31.7084C38.0044 31.012 38.0374 29.9126 38.4095 28.3292C38.7441 26.9057 39.3513 25.1127 39.8613 23.5955C40.5719 21.4815 42.8616 20.3437 44.9756 21.0543C45.151 21.1133 45.3189 21.1846 45.4803 21.2643C45.513 21.2126 45.539 21.1727 45.5592 21.1396C45.5678 21.1256 45.6091 21.0582 45.6307 21.0233C45.6521 20.9886 45.7234 20.8723 45.816 20.7418L45.9181 20.6038C45.9628 20.5458 46.0179 20.4777 46.0817 20.4046C46.1634 20.3112 46.4783 19.9496 46.9897 19.6287Z" fill="#F5F1E6"/>
<path d="M36.1319 20.9539C37.6544 19.3241 40.2095 19.2372 41.8393 20.7597C43.3784 22.1974 43.5408 24.5554 42.2721 26.186C42.5985 26.2635 42.9561 26.3875 43.321 26.5858C44.2801 27.1069 44.7832 27.861 44.9877 28.2115L45.0577 28.3353L45.1538 28.5162C45.3724 28.9449 45.5514 29.4151 45.6611 29.9078C45.7213 30.1786 45.7864 30.5692 45.7784 31.0287C45.7743 31.2637 45.7631 32.4826 44.8477 33.6068C44.2788 34.3054 43.6136 34.6606 43.1599 34.8407C42.8181 34.9764 42.5146 35.0429 42.4313 35.0615C42.2198 35.1089 41.9111 35.1649 41.6046 35.2217C41.0196 35.3302 40.1707 35.4809 39.412 35.6269C39.2874 35.6721 39.1596 35.7119 39.0285 35.7452C38.8781 35.7835 38.7244 35.8219 38.572 35.8606C38.0433 36.1538 37.5554 36.4343 37.1893 36.6611C36.8239 36.8875 36.6407 37.0244 36.5677 37.0816C36.5386 37.1165 36.5023 37.1614 36.4607 37.2083C36.3937 37.2837 36.2442 37.4487 36.0358 37.6283C35.8798 37.7628 34.1787 39.2625 31.8581 38.3529C30.8756 37.9678 30.3057 37.3126 30.0382 36.9451C29.7649 36.5697 29.6129 36.227 29.5418 36.0543C29.4016 35.714 29.324 35.4005 29.2963 35.2888C29.204 34.9168 29.1209 34.4717 29.0582 33.8967C28.7452 33.6749 28.468 33.4137 28.2364 33.1242C27.656 32.3985 27.4849 31.6721 27.428 31.3856C27.3592 31.0392 27.3506 30.7566 27.3501 30.6063C27.3491 30.3035 27.383 30.0656 27.3965 29.9753C27.4634 29.5269 27.6443 28.9589 27.7248 28.6966C27.9948 27.8161 28.5644 26.0387 28.895 25.0458C28.9683 24.8258 29.0667 24.5312 29.1642 24.2833C29.2061 24.1765 29.3073 23.9228 29.4614 23.6459C29.5332 23.517 29.7014 23.226 29.977 22.9109C30.103 22.7669 30.5653 22.2423 31.3681 21.8782C31.6137 21.6628 31.9557 21.4124 32.3905 21.2176C32.9545 20.965 34.0517 20.6422 35.3393 21.0791C35.5125 21.1379 35.6744 21.2063 35.8263 21.2807C35.928 21.1719 36.03 21.063 36.1319 20.9539Z" fill="#F5F1E6"/>
<path d="M27.4629 17.9876C28.0151 15.9012 30.1224 14.6074 32.2469 15.0826C33.7961 15.4292 34.9354 16.6232 35.2884 18.0674C35.4518 18.1702 35.6104 18.2851 35.7616 18.414C37.4594 19.8602 37.6633 22.4087 36.2171 24.1065C35.9168 24.459 35.6497 24.7731 35.2662 25.258C34.8588 25.7733 34.3765 26.4114 34.0837 26.8389C33.9624 27.0159 33.9526 27.0426 33.9456 27.0573C33.9193 27.1125 33.8532 27.2648 33.7021 27.7139C33.3963 28.6226 32.923 30.2049 32.6556 31.1463C32.5026 31.6849 32.4151 32.0295 32.3544 32.2741C32.3272 32.3838 32.2901 32.5356 32.2588 32.6562C32.2246 32.7879 32.1742 32.9735 32.1035 33.1806C31.912 33.7419 31.6388 34.2176 31.4913 34.4662C31.3276 34.7422 31.1426 35.0245 31.0032 35.2382C31.0104 35.2265 31.0091 35.2287 30.9968 35.2505C30.9772 35.2854 30.952 35.3314 30.9047 35.4196C30.823 35.5719 30.6756 35.8496 30.497 36.1442C30.273 36.5139 29.8156 37.1459 28.996 37.6157C28.0586 38.153 26.9752 38.2879 25.9742 38.0426C25.1042 37.8292 24.5217 37.3871 24.2366 37.1385C23.932 36.873 23.7296 36.6184 23.6293 36.4854C22.965 35.604 22.7819 34.6912 22.7237 34.1582C22.6624 33.596 22.7026 33.1038 22.7464 32.77C22.8337 32.1051 23.0122 31.527 23.1028 31.2503C23.1473 31.1143 23.1908 30.9664 23.2719 30.6923C23.3488 30.4323 23.4459 30.1058 23.576 29.697C23.7476 29.1581 23.9257 28.4701 24.1498 27.7129C24.3473 27.0454 24.4441 26.7903 24.8572 25.5957C25.2893 24.3464 26.099 21.9839 26.5268 20.7145C26.7387 20.0858 26.8476 19.7526 26.9123 19.5517C26.9631 19.394 27.0198 19.2123 27.0779 19.042C27.1883 18.7185 27.3686 18.2421 27.4368 18.0585C27.4478 18.029 27.4562 18.0058 27.4629 17.9876ZM27.4471 18.0507C27.4462 18.0543 27.4451 18.058 27.4442 18.0615C27.4376 18.0882 27.4305 18.1149 27.4245 18.1419L28.018 18.2749L27.4442 18.0615C27.4452 18.0574 27.4461 18.0533 27.4471 18.0492V18.0507ZM28.018 18.2749L27.4245 18.1419C27.4305 18.1149 27.4376 18.0882 27.4442 18.0615L28.018 18.2749Z" fill="#F5F1E6"/>
<path d="M52.915 1.61784C53.5579 1.61166 55.1829 1.60146 56.2473 1.73566C56.8435 1.81083 57.6821 1.97373 58.4956 2.45141C59.4432 3.0079 59.9426 3.73953 60.2007 4.22503L60.2973 4.41679L60.3698 4.57601C60.4401 4.73649 60.5034 4.90071 60.5581 5.07093C60.5908 5.17279 60.6193 5.27627 60.6379 5.34698L60.6576 5.42634L60.6848 5.5412C60.7024 5.62111 60.7188 5.70596 60.7331 5.79605C60.7595 5.96374 60.7713 6.10434 60.7774 6.19189C60.7885 6.35074 60.7926 6.51964 60.7952 6.66857C60.8009 6.99566 60.8044 7.57946 60.8045 8.65662C60.8047 10.8136 60.7916 15.1431 60.7232 17.7939C60.6895 19.0994 60.6399 20.092 60.5635 20.7693C60.5392 20.985 60.4713 21.621 60.2337 22.2422C60.1629 22.4272 60.012 22.7893 59.7309 23.1852C59.4866 23.5293 58.825 24.3535 57.595 24.7296C56.1273 25.1784 54.838 24.7106 54.0596 24.1608C53.4048 23.6982 53.0528 23.1589 52.9164 22.9353C52.7607 22.6799 52.65 22.4332 52.5738 22.2383C52.4133 22.433 52.1646 22.6981 51.8236 22.9461C51.1742 23.4185 49.8637 24.0338 48.2611 23.5451C46.9284 23.1386 46.2618 22.2047 46.0611 21.9011C45.6482 21.2767 45.5082 20.6635 45.5021 20.6396C45.4564 20.4657 45.4257 20.3089 45.4084 20.2152C45.3947 20.1411 45.3804 20.055 45.3645 19.9569C44.8812 20.0397 44.3385 20.0421 43.7467 19.9056C42.2952 19.5709 41.524 18.5894 41.311 18.307C41.0233 17.9256 40.8413 17.5578 40.7525 17.3704C40.5685 16.9822 40.3925 16.5107 40.2635 16.1666C40.0542 15.6083 39.7595 14.8067 39.4413 13.939C39.0677 14.3157 38.4852 14.8602 37.7742 15.2621C37.2875 15.5372 36.6194 15.8066 35.8418 15.8886C35.7394 16.8049 35.6233 17.9399 35.5032 19.1115C35.2756 21.3301 33.2926 22.9445 31.074 22.7169C28.8555 22.4893 27.2416 20.5063 27.4691 18.2878C27.6273 16.7457 27.7918 15.137 27.9271 14.0366C28.0669 12.8992 28.1796 12.2869 28.2159 12.0545C28.2303 11.9624 28.2394 11.8929 28.2544 11.7203C28.2739 11.4957 28.2918 11.2429 28.3357 10.6959C28.404 9.84459 28.4519 8.49911 28.5186 7.41686C28.5591 6.7611 28.593 6.26775 28.6261 5.91682C28.6418 5.74954 28.6644 5.53596 28.7 5.32233C28.7176 5.21695 28.7496 5.04159 28.8055 4.83727C28.8429 4.70055 28.9749 4.22051 29.3073 3.6961L29.3872 3.57434C30.2257 2.34587 31.4222 1.97832 31.9544 1.86382C32.4061 1.76666 32.8188 1.75762 32.9561 1.7539C33.3524 1.74315 33.9988 1.76211 36.1686 1.81305C38.456 1.86675 42.51 1.95931 44.9095 1.98706C47.2945 2.01464 47.8162 1.97381 48.0176 1.95896C48.3237 1.93639 48.4099 1.91997 48.8561 1.86432C49.0022 1.84609 49.1331 1.8241 49.3032 1.7953C49.3751 1.78312 49.4956 1.76292 49.6098 1.74601C49.7049 1.73193 49.9338 1.69845 50.2008 1.68784L50.7642 1.66664C51.0454 1.65754 51.4092 1.64812 51.8231 1.64446C51.891 1.64386 51.8956 1.64303 52.0952 1.63559C52.2821 1.62862 52.5215 1.62162 52.915 1.61784Z" fill="#F5F1E6"/>
<path d="M62.1538 26.5402C64.384 26.5403 66.192 28.3482 66.192 30.5784C66.192 32.763 64.4573 34.5407 62.2904 34.6127C62.275 34.6148 62.2591 34.6181 62.2426 34.6201L62.1987 34.6255L62.1548 34.63C62.0234 34.6432 61.9062 34.6493 61.8472 34.6521C61.7766 34.6556 61.7055 34.6581 61.6481 34.66C61.512 34.6647 61.4273 34.6671 61.3035 34.6719C61.1918 34.6762 61.0987 34.6812 61.023 34.6867C60.9401 34.6926 60.9211 34.6962 60.9481 34.6921C60.5049 34.7594 59.8867 34.8043 59.3066 34.8523C58.9602 34.8809 58.5235 34.927 58.2295 34.9607C57.5986 35.0332 56.8871 35.0613 55.9718 35.0613C53.7416 35.0613 51.9337 33.2532 51.9336 31.0231C51.9336 28.7928 53.7416 26.9849 55.9718 26.9849C56.7503 26.9849 57.1155 26.9591 57.3077 26.9371C57.647 26.8981 58.1766 26.8419 58.6406 26.8035C59.0113 26.7728 59.2578 26.7532 59.4628 26.7349C59.5601 26.7263 59.6286 26.7196 59.6783 26.7142C59.7114 26.7106 59.729 26.7081 59.7349 26.7073C60.2164 26.6342 60.7186 26.6124 60.9895 26.6018C61.1174 26.5969 61.2631 26.5922 61.3449 26.5895C61.396 26.5825 61.4534 26.5741 61.515 26.5678L61.7437 26.5501C61.9625 26.5378 62.1375 26.5402 62.1538 26.5402Z" fill="#F5F1E6"/>
<path d="M27.5747 11.6851C28.28 9.56945 30.5669 8.42597 32.6826 9.13112C34.7983 9.83638 35.9418 12.1237 35.2365 14.2395C35.2353 14.2431 35.2337 14.2464 35.2326 14.2499C35.223 14.3062 35.208 14.3991 35.1892 14.5052C35.1481 14.7371 35.0914 15.0364 35.0024 15.4527C34.8286 16.2654 34.6806 16.7993 34.5996 17.2559C34.475 17.9585 34.4153 18.2 34.3339 18.538C34.2621 18.836 34.2106 19.0471 34.1727 19.2114C34.1677 19.2333 34.1635 19.2522 34.1599 19.2681C34.1062 19.7257 34.0175 20.1138 33.9632 20.3377C33.8643 20.7464 33.7115 21.1825 33.6325 21.4109C33.5273 21.7149 33.4427 21.956 33.3648 22.2085C33.2255 22.66 33.0299 23.2249 32.7555 23.8022C32.7612 23.7902 32.7281 23.8609 32.6781 24.0018C32.6308 24.1352 32.5821 24.2939 32.5426 24.4578C32.463 24.7875 32.3839 25.0424 32.3271 25.2184C32.3147 25.2568 32.3023 25.2959 32.2951 25.318C32.2928 25.3249 32.2903 25.3307 32.2887 25.3357C32.1502 25.8934 31.9845 26.482 31.9072 26.7406C31.7836 27.1536 31.756 27.222 31.7124 27.3824C31.7119 27.3851 31.7116 27.3883 31.711 27.3913C31.7048 27.4224 31.6982 27.4588 31.6873 27.5155C31.6771 27.5687 31.6644 27.635 31.6498 27.7088C31.5886 28.0203 31.5014 28.4347 31.3565 29.0146C31.2142 29.5843 31.1453 29.8174 31.0312 30.2829C31.0303 30.2872 31.0288 30.2941 31.0268 30.3046C31.0223 30.328 31.0197 30.3431 31.011 30.3894C31.0038 30.4277 30.993 30.4833 30.9804 30.5457C30.9603 30.645 30.9362 30.7487 30.9089 30.8587C30.9937 30.8594 31.0941 30.8614 31.2013 30.8602C31.3801 30.8581 31.5438 30.8527 31.6671 30.8449C31.7882 30.8372 31.9002 30.8255 32.1009 30.8045C32.2887 30.7848 32.5607 30.7563 32.8758 30.7369C33.4096 30.7042 34.1352 30.6998 34.2777 30.6965C34.4061 30.6935 34.6879 30.6757 35.5165 30.6689C36.4058 30.6616 37.8323 30.6622 38.6551 30.6487C39.0287 30.6426 39.2026 30.6332 39.2732 30.6285C39.3048 30.6264 39.3249 30.6246 39.3521 30.6221C39.3572 30.6216 39.4825 30.6091 39.603 30.6019C39.6286 30.6003 39.6343 30.5994 39.6267 30.6004C39.626 30.6005 39.6253 30.6003 39.6247 30.6004C39.6441 30.5966 39.6702 30.5911 39.7539 30.5728C39.827 30.5567 39.9464 30.5303 40.0826 30.5033C40.4221 30.436 40.7954 30.3784 41.0202 30.346C41.1326 30.3299 41.2539 30.3145 41.3397 30.3031C41.4371 30.2903 41.5108 30.2801 41.5758 30.2706C41.5826 30.2696 41.589 30.268 41.595 30.2672C41.9047 30.1712 42.3281 30.0566 42.8323 30.0039L43.4712 29.9275C43.6381 29.9083 44.4569 29.7894 45.3764 29.7801C45.6801 29.7771 45.9699 29.755 46.1878 29.7338C46.2606 29.7093 46.3474 29.6806 46.4485 29.6475C46.8742 29.5085 47.5738 29.2944 48.0117 29.1684C48.2523 29.0991 48.4591 29.0458 48.5327 29.0259C48.5993 29.008 48.6337 28.9977 48.7033 28.9742C49.5761 28.6787 50.4145 28.4128 51.1961 28.2692C51.5481 28.2046 52.2102 28.0746 53.0387 27.8685C53.8911 27.6564 54.9023 27.3699 56.0003 27.0581C58.1457 26.4489 60.3788 27.6944 60.988 29.8398C61.597 31.9851 60.3516 34.2182 58.2063 34.8274C57.1443 35.1289 55.9953 35.4553 54.9883 35.7058C53.9575 35.9623 53.1258 36.1261 52.6552 36.2126C52.5108 36.2391 52.1694 36.3276 51.2932 36.6242C51.0232 36.7156 50.8197 36.7736 50.6351 36.8233C50.4576 36.8712 50.3988 36.8853 50.2442 36.9298C49.8914 37.0313 49.2841 37.2177 48.9566 37.3247C48.8611 37.3559 48.7824 37.3822 48.7107 37.4065C48.6508 37.4268 48.5552 37.4595 48.4745 37.4859C48.2926 37.5453 47.9423 37.6558 47.4901 37.7146C47.0813 37.7677 46.3246 37.8473 45.4582 37.8561C45.0774 37.8599 44.8204 37.9021 44.393 37.9512C44.3082 37.9609 44.0868 37.9872 43.8956 38.0099C43.6088 38.1027 43.3508 38.1571 43.202 38.1858C43.0326 38.2186 42.8714 38.2438 42.745 38.2622C42.6167 38.281 42.4907 38.2975 42.3955 38.3101C42.2887 38.3241 42.2241 38.3324 42.1703 38.3401C41.9974 38.365 41.7869 38.399 41.6537 38.4254C41.6002 38.436 40.9021 38.6145 40.0881 38.6635C40.1374 38.6605 40.1909 38.6552 40.1024 38.6635C40.0361 38.6697 39.9405 38.6782 39.8135 38.6867C39.5664 38.7032 39.2493 38.7165 38.7877 38.7241C37.9394 38.7381 36.3261 38.7388 35.5826 38.7448C34.7784 38.7514 34.9264 38.7602 34.466 38.771L33.8765 38.7808C33.6725 38.7847 33.5012 38.79 33.3702 38.7981C33.2508 38.8054 33.1387 38.8165 32.9433 38.837C32.7608 38.8562 32.4902 38.8853 32.1798 38.9051C31.5903 38.9426 30.9446 38.9408 30.5856 38.9327C30.401 38.9285 30.2189 38.9202 30.1577 38.9179C30.0686 38.9145 29.9259 38.9102 29.6204 38.907C29.0463 38.9011 27.6426 38.9 26.9324 38.8784C26.7433 38.8727 26.5238 38.8633 26.3098 38.8439C26.173 38.8315 25.6964 38.7909 25.1647 38.6073C24.6475 38.4287 22.9673 37.7082 22.4894 35.6565C22.3006 34.846 22.4069 34.1828 22.4722 33.8736C22.5106 33.6917 22.5597 33.5322 22.5915 33.4338C22.5921 33.4288 22.5926 33.4234 22.593 33.4186C22.5936 33.4098 22.5933 33.4089 22.5934 33.4171C22.5915 33.2711 22.5841 33.1732 22.5654 32.829C22.5478 32.5068 22.5295 32.1049 22.5254 31.5414C22.5217 31.0356 22.5814 30.5977 22.6669 30.2193C22.706 30.0463 22.746 29.9054 22.7684 29.8284C22.8021 29.7129 22.7871 29.7661 22.7832 29.7806C22.8774 29.4279 22.9913 29.1186 23.0751 28.8904C23.0796 28.8659 23.0874 28.8227 23.0948 28.7844C23.115 28.6786 23.1443 28.5327 23.187 28.359C23.253 28.0898 23.4885 27.1855 23.5207 27.0566C23.6275 26.6289 23.686 26.3496 23.7253 26.1501C23.7358 26.0963 23.7455 26.0461 23.7558 25.9923C23.7654 25.9423 23.7771 25.8809 23.7888 25.8218C23.8112 25.7088 23.8472 25.5308 23.8998 25.3333L23.9737 25.0705C24.0542 24.7947 24.1456 24.5052 24.1694 24.4257C24.2212 24.2526 24.3634 23.7516 24.4657 23.3329C24.5077 23.1607 24.552 23.0162 24.579 22.9306C24.5931 22.8861 24.6065 22.8445 24.616 22.8153C24.627 22.7815 24.6336 22.7617 24.6411 22.7384C24.664 22.6675 24.6772 22.6233 24.6914 22.5644C24.9102 21.6571 25.2143 20.8542 25.4609 20.3353C25.5071 20.238 25.5712 20.0746 25.6472 19.828C25.7747 19.4149 25.9117 19.0242 25.9992 18.7712C26.0473 18.6322 26.0792 18.5385 26.1027 18.4655C26.1099 18.4434 26.1149 18.4274 26.118 18.4172C26.1298 18.3675 26.1368 18.3372 26.1402 18.3191C26.1405 18.3174 26.1405 18.3159 26.1407 18.3147C26.1655 18.0552 26.2095 17.8332 26.2245 17.7582C26.2491 17.6349 26.2771 17.5091 26.3024 17.3993C26.3522 17.1829 26.4196 16.9075 26.4823 16.6471C26.5208 16.4872 26.5333 16.4355 26.5518 16.3488C26.5704 16.2617 26.5984 16.1215 26.6474 15.845C26.7478 15.2791 27.0584 13.979 27.1044 13.7638C27.1733 13.4416 27.2117 13.2353 27.2365 13.0954C27.25 13.0194 27.2596 12.962 27.2725 12.8864C27.2835 12.822 27.3014 12.7183 27.3233 12.6084L27.3326 12.562L27.3425 12.5157C27.3742 12.3733 27.4382 12.0955 27.5342 11.8073L27.5747 11.6851ZM30.2454 36.0055C30.2468 36.0017 30.2644 35.9523 30.2849 35.8862C30.287 35.8795 30.2884 35.8719 30.2908 35.8641C30.2753 35.9117 30.2616 35.9594 30.2454 36.0055Z" fill="#F5F1E6"/>
<path d="M70.9759 26.4906C71.1107 26.4663 71.4382 26.4105 71.8035 26.4635C71.9977 26.4916 72.3363 26.5682 72.6731 26.814C72.8293 26.928 72.9646 27.0647 73.0768 27.2177C74.2389 27.0328 74.5889 26.927 75.1649 26.8135C75.8187 26.6847 76.7254 26.5617 77.2466 26.57L77.3718 26.5744C77.5226 26.583 77.7435 26.6088 77.9772 26.6912C78.1386 26.7481 78.4392 26.8775 78.7122 27.1674C79.0304 27.5055 79.2191 27.9678 79.2017 28.4658C79.1866 28.8952 79.0237 29.2077 78.9291 29.361C78.8277 29.5253 78.7202 29.6416 78.6569 29.7056C78.5331 29.8309 78.4113 29.9197 78.3755 29.9461C78.0038 30.2197 77.587 30.4134 76.7976 30.7363C76.0696 31.0341 74.6594 31.4373 73.9582 31.667C73.1286 31.9388 72.6987 32.0996 72.3793 32.2112C71.8686 32.3897 71.5839 32.5181 70.9295 32.7924C70.5292 32.9603 69.8607 33.2068 69.4192 33.3613C69.0707 33.4832 68.7777 33.5755 68.5299 33.6521C68.2726 33.7317 68.0961 33.785 67.925 33.8439C67.5444 33.975 67.229 34.0744 66.9737 34.1539C66.7052 34.2376 66.543 34.2877 66.4087 34.3358C66.1952 34.4123 66.0061 34.459 65.8912 34.4867C65.8227 34.5032 65.7993 34.5082 65.7699 34.5158C65.7456 34.522 65.7579 34.5195 65.7871 34.5093C65.7414 34.5253 65.6331 34.5623 65.5012 34.5897C65.4411 34.6022 65.3038 34.6284 65.13 34.6296C65.0623 34.6301 64.4819 34.6496 63.9593 34.2062C63.6329 33.9292 63.4125 33.539 63.3505 33.103C63.2954 32.715 63.3807 32.4042 63.4442 32.2329C63.5076 32.0617 63.5901 31.9236 63.6596 31.8238C63.0107 31.6256 62.5062 31.0614 62.4203 30.3444C62.381 30.0165 62.4351 29.699 62.5603 29.4177C62.5255 29.2982 62.5017 29.1733 62.4928 29.0441C62.4255 28.0708 63.16 27.227 64.1333 27.1595C64.9321 27.1042 65.6882 27.0888 66.0459 27.0767C66.2129 27.0658 66.3172 27.0551 66.4078 27.0452C66.4998 27.0351 66.6373 27.0185 66.8021 27.0057L66.847 27.0023L66.8928 27.0008C67.254 26.9913 67.4819 26.9772 67.6322 26.9648C67.7078 26.9586 67.7689 26.9521 67.8255 26.9461C67.8726 26.9411 67.952 26.9324 68.0197 26.9264C68.2271 26.908 68.7891 26.8563 69.1584 26.8406C69.4823 26.8268 69.7853 26.7742 70.1679 26.6838C70.2388 26.6671 70.7226 26.5362 70.9759 26.4906Z" fill="#F5F1E6"/>
<path d="M23.215 29.1973C24.188 29.1252 25.0353 29.8554 25.1074 30.8284C25.1134 30.9099 25.1441 31.2274 25.0882 31.5546C25.0569 31.7372 25.0085 31.8882 24.9659 32.0007C24.959 32.0298 24.9522 32.0611 24.9437 32.0938C24.9435 32.0955 24.943 32.0973 24.9428 32.0993C24.9425 32.1011 24.9421 32.1031 24.9418 32.1052C24.9417 32.1121 24.9417 32.1112 24.9418 32.1431C24.9418 32.1526 24.9421 32.1872 24.9408 32.2269C24.9401 32.2478 24.9383 32.2846 24.9344 32.3295C24.9311 32.3668 24.9226 32.4547 24.8984 32.5636C24.8906 32.5986 24.8783 32.6567 24.8594 32.7445C24.8489 32.7937 24.839 32.8375 24.8309 32.8722C24.8269 32.8889 24.8225 32.9061 24.8195 32.9185C24.8163 32.932 24.8142 32.9422 24.8121 32.9511C24.8092 32.9638 24.808 32.9701 24.8077 32.9718L24.7904 33.0901C24.7705 33.2072 24.7485 33.2946 24.7268 33.3721L24.6849 33.5411C24.6552 33.651 24.6108 33.8001 24.5849 33.8837C24.5616 33.9588 24.5214 34.0899 24.4464 34.2401C24.01 35.1128 22.9485 35.4667 22.0758 35.0303C21.2575 34.6211 20.8958 33.6627 21.2136 32.8254C21.2318 32.7663 21.2599 32.6702 21.2743 32.6174C21.277 32.607 21.2783 32.6026 21.2797 32.5966C21.2804 32.5934 21.2807 32.5907 21.2821 32.5843C21.2832 32.5794 21.2856 32.5697 21.2881 32.5592C21.2913 32.5449 21.2999 32.511 21.3117 32.468C21.3295 32.3339 21.3549 32.2192 21.3694 32.1564C21.3901 32.0667 21.3939 32.0541 21.4049 32.0031C21.4073 31.9918 21.4099 31.9803 21.4123 31.9691C21.4158 31.8761 21.4225 31.7587 21.4414 31.6255C21.4559 31.5229 21.4759 31.3873 21.5217 31.2154L21.5666 31.0192C21.5708 31.0032 21.5754 30.9885 21.5794 30.9749C21.5702 30.0508 22.2804 29.2666 23.215 29.1973ZM21.2752 32.6814C21.2717 32.6888 21.2683 32.6971 21.2644 32.7056C21.2714 32.6905 21.2781 32.6752 21.2856 32.6602C21.2845 32.6625 21.2801 32.6713 21.2752 32.6814ZM24.8964 32.1688C24.8971 32.1673 24.9001 32.1612 24.9038 32.1525C24.9063 32.1468 24.91 32.1378 24.9147 32.1264C24.9059 32.1463 24.8991 32.163 24.8964 32.1688Z" fill="#F5F1E6"/>
<path d="M22.5715 32.8181C23.5412 32.7104 24.4148 33.4091 24.5225 34.3788C24.5352 34.4929 24.5644 34.7456 24.5433 35.0102C24.5219 35.2764 24.452 35.5165 24.419 35.622C24.4156 35.6464 24.4128 35.6676 24.4106 35.6811C24.4088 35.6928 24.4072 35.7045 24.4057 35.7136C24.4041 35.7237 24.4025 35.7318 24.4013 35.7398C24.3956 35.7756 24.3954 35.78 24.3964 35.7708C24.3937 35.7965 24.3913 35.8221 24.3885 35.8541C24.3859 35.8824 24.3822 35.9253 24.3781 35.966C24.371 36.0373 24.3561 36.1711 24.3219 36.3234C24.3215 36.3287 24.3214 36.3342 24.3209 36.3397C24.3169 36.3892 24.3105 36.457 24.2978 36.5388C24.2694 36.7213 24.2302 36.8754 24.1957 36.9914C24.185 37.0275 24.1681 37.0761 24.1553 37.1146C24.1445 37.1524 24.1328 37.193 24.1178 37.2388C24.089 37.3269 24.0401 37.4681 24.0099 37.5514C23.9815 37.6295 23.9592 37.6895 23.9251 37.7919C23.8819 37.9215 23.8541 38.0054 23.8354 38.0601C23.8204 38.1037 23.7912 38.1885 23.755 38.2775L23.7531 38.2819C23.517 39.194 22.6014 39.7656 21.6718 39.5655C20.718 39.3603 20.111 38.4204 20.3162 37.4666C20.3345 37.3816 20.3533 37.3124 20.369 37.259L20.3729 37.2462L20.3769 37.2339C20.3801 37.2215 20.4173 37.0966 20.4824 36.945C20.4848 36.9383 20.4878 36.9287 20.4927 36.9145C20.5052 36.8781 20.527 36.8136 20.5731 36.6754C20.6246 36.5206 20.6631 36.4161 20.6889 36.3451C20.7072 36.2948 20.7432 36.1899 20.7594 36.1405C20.7613 36.1335 20.7636 36.1245 20.7663 36.1149C20.7722 36.0943 20.7806 36.0665 20.7914 36.0341C20.7947 36.0243 20.7975 36.0162 20.7993 36.0109C20.8009 36.0064 20.8027 36.0026 20.8038 35.9996C20.8044 35.9922 20.8045 35.9842 20.8053 35.9759C20.8103 35.9189 20.8179 35.8505 20.8309 35.7703C20.8399 35.7144 20.8511 35.6587 20.8634 35.6022C20.8649 35.5873 20.8666 35.569 20.8693 35.5387C20.8724 35.5047 20.8766 35.4597 20.8817 35.41C20.8911 35.3179 20.9041 35.2333 20.9112 35.1882C20.9132 35.1759 20.9152 35.1643 20.9167 35.1551C20.9183 35.1452 20.9192 35.1379 20.9201 35.132C20.9339 35.0239 20.9571 34.8847 21.0059 34.7105C20.9319 33.7643 21.6212 32.9237 22.5715 32.8181ZM23.7629 38.241C23.7634 38.2391 23.7644 38.2371 23.7649 38.2351C23.7673 38.2259 23.7692 38.2174 23.7708 38.2099C23.7686 38.2204 23.7653 38.2306 23.7629 38.241Z" fill="#F5F1E6"/>
<path d="M22.0435 36.2818L22.1085 36.2916C22.1133 36.2919 22.1186 36.2918 22.1238 36.2921C22.1769 36.2957 22.2645 36.3025 22.3668 36.3153C22.3322 36.311 22.3069 36.3093 22.2998 36.3089C22.3085 36.3093 22.3036 36.3086 22.319 36.3094C22.3431 36.3106 22.376 36.3141 22.4161 36.3173H22.4433C22.5069 36.3176 22.6078 36.3191 22.7277 36.3266C22.7407 36.3274 22.7525 36.3284 22.7617 36.3291C22.7708 36.3298 22.7791 36.33 22.7854 36.3306C22.7886 36.3308 22.7918 36.3313 22.7947 36.3316C22.871 36.3241 23.0085 36.3111 23.1901 36.3089C23.265 36.3079 23.4941 36.3046 23.6396 36.3099C23.6687 36.3109 23.6573 36.3105 23.6983 36.3118C23.7222 36.3126 23.77 36.3143 23.8255 36.3187C23.9673 36.33 24.091 36.353 24.208 36.3823C24.2411 36.3906 24.3346 36.4145 24.4466 36.4592C24.4985 36.48 24.616 36.529 24.7512 36.616C24.8192 36.6598 25.2342 36.9183 25.4463 37.4698C25.5756 37.8061 25.613 38.2156 25.4842 38.6297C25.3645 39.0144 25.1432 39.2693 24.9839 39.4139C24.701 39.6707 24.4096 39.7651 24.3406 39.7876C24.2741 39.8093 24.2107 39.8241 24.1553 39.8359C23.623 40.1299 22.9927 40.1218 22.4797 39.8522C22.4646 39.8517 22.4477 39.8508 22.427 39.8507H22.3585C22.3442 39.8506 22.3193 39.8502 22.2909 39.8492C22.2684 39.8484 22.2113 39.8462 22.1411 39.8384C22.1417 39.8384 22.1422 39.8388 22.1426 39.8389C22.1417 39.8388 22.1389 39.8382 22.1322 39.8379C22.129 39.8377 22.0968 39.8362 22.0701 39.8344C22.0633 39.834 22.0557 39.8326 22.0474 39.832C21.3918 39.8971 20.7258 39.5918 20.3611 38.991C19.8935 38.2207 20.0848 37.2355 20.7736 36.6904C20.7815 36.6839 20.7893 36.6764 20.7978 36.6697L20.921 36.5805C21.2174 36.3842 21.5659 36.2795 21.9232 36.2813L22.0435 36.2818ZM20.6652 36.7856C20.6538 36.7964 20.6452 36.8051 20.643 36.8072C20.6455 36.8048 20.6499 36.8008 20.6529 36.7979C20.6567 36.7942 20.6638 36.788 20.6731 36.7791C20.6705 36.7816 20.6675 36.7833 20.6652 36.7856ZM22.532 36.3266C22.497 36.3227 22.4686 36.3208 22.4516 36.3197C22.4471 36.3194 22.4428 36.3194 22.4388 36.3192C22.4668 36.3216 22.4982 36.3229 22.532 36.3266Z" fill="#F5F1E6"/>
<path d="M27.4148 36.0358C28.3901 36.0095 29.2024 36.7789 29.2288 37.7542C29.2552 38.7296 28.4857 39.5418 27.5104 39.5683C27.322 39.5734 27.1806 39.5772 27.0638 39.5845C27.0091 39.588 26.9554 39.5925 26.9011 39.5973C26.8732 39.5999 26.8482 39.6021 26.8193 39.6047C26.7928 39.6072 26.7604 39.6105 26.7291 39.6131C26.6616 39.6187 26.6087 39.6215 26.5659 39.6235C26.5524 39.6241 26.5356 39.6247 26.5284 39.625L26.527 39.6254C26.513 39.6265 26.4921 39.628 26.4644 39.6299C26.4093 39.6337 26.3365 39.638 26.2268 39.6432C26.0272 39.6527 25.6366 39.6685 25.4745 39.6757C25.4634 39.6762 25.453 39.6768 25.4435 39.6772C25.373 39.6961 25.2743 39.7231 25.1457 39.7595C24.2071 40.0257 23.2302 39.4805 22.964 38.542C22.6978 37.6033 23.2429 36.6264 24.1815 36.3602C24.3444 36.314 24.4804 36.2764 24.5838 36.2493C24.6342 36.236 24.6874 36.2222 24.7366 36.2108C24.7603 36.2053 24.795 36.1976 24.8342 36.1901C24.8424 36.1885 24.9623 36.1639 25.1088 36.1576C25.0823 36.1587 25.0614 36.1603 25.0526 36.161C25.052 36.1611 25.0513 36.161 25.0506 36.161C25.0644 36.1599 25.0827 36.1583 25.1078 36.1566C25.1537 36.1535 25.2175 36.1502 25.3163 36.1457C25.5255 36.1364 25.8528 36.1235 26.0587 36.1137C26.1515 36.1093 26.1979 36.1064 26.2208 36.1048C26.2319 36.1041 26.2397 36.1036 26.2494 36.1029C26.2565 36.1023 26.2812 36.1001 26.3071 36.0984L26.3727 36.095C26.3907 36.0942 26.3923 36.0944 26.4013 36.094C26.4095 36.0936 26.4196 36.093 26.4377 36.0915C26.4587 36.0898 26.6716 36.0687 26.8429 36.058C27.0347 36.046 27.243 36.0405 27.4148 36.0358Z" fill="#F5F1E6"/>
<path d="M34.6424 36.021C35.6181 36.0211 36.4091 36.8121 36.4091 37.7878C36.4091 38.7635 35.6181 39.5544 34.6424 39.5545H34.603C34.5982 39.5548 34.594 39.5553 34.5902 39.5555C34.5629 39.557 34.5349 39.5584 34.5103 39.5594C34.4667 39.5612 34.3936 39.5637 34.3274 39.5663L34.3048 39.5673H34.2821C34.228 39.568 34.1566 39.5685 34.0972 39.5688C34.0318 39.5691 33.9787 39.5693 33.9439 39.5698C33.9179 39.5701 33.9083 39.5707 33.8951 39.5712C33.8771 39.572 33.832 39.5741 33.7709 39.5762C33.6543 39.5802 33.5164 39.5836 33.346 39.5984C33.1561 39.6147 32.9533 39.6413 32.7761 39.6619C32.6915 39.6718 32.6299 39.6782 32.5775 39.6826C32.552 39.6848 32.5316 39.6863 32.5213 39.6871C32.5102 39.6879 32.5145 39.6872 32.5218 39.6866C32.5183 39.687 32.5144 39.6879 32.5085 39.6886C32.5016 39.6893 32.4928 39.6905 32.4833 39.6915C32.4429 39.696 32.3903 39.701 32.3226 39.7068C32.261 39.712 32.1893 39.7175 32.1338 39.7216C32.0777 39.7257 32.0382 39.7283 32.0121 39.7305C31.9194 39.7462 31.8218 39.7627 31.6281 39.7832C31.6266 39.7834 31.6226 39.7841 31.6138 39.7852C31.5997 39.7868 31.5785 39.7891 31.5517 39.7921C31.4971 39.7981 31.428 39.805 31.3284 39.8138C31.1128 39.8328 30.861 39.8522 30.584 39.8779C30.3155 39.9028 30.0367 39.9331 29.4823 39.9543C29.378 39.9582 29.2567 39.9605 29.1274 39.9641C29.086 39.968 29.0435 39.9732 28.9997 39.9769C28.4662 40.0221 27.7702 40.0494 27.4331 40.0573C27.3469 40.0593 27.2693 40.0602 27.2034 40.0597C27.1899 40.0597 27.0214 40.0616 26.845 40.0317C26.8028 40.0245 26.6419 39.9973 26.4521 39.9178C26.3611 39.8796 26.156 39.7861 25.9464 39.5959C25.7234 39.3934 25.3882 38.9747 25.3677 38.3443C25.348 37.7382 25.6338 37.3195 25.798 37.1297C25.9634 36.9386 26.1316 36.8279 26.2091 36.7802C26.3698 36.6813 26.5104 36.6318 26.5493 36.618C26.5891 36.6039 26.6268 36.5932 26.6587 36.584C26.6902 36.5561 26.7217 36.5299 26.7533 36.5056C26.7938 36.4497 26.8374 36.3936 26.884 36.3375C26.9012 36.335 26.92 36.3334 26.9377 36.3311L26.9372 36.3301C26.9416 36.3294 26.9574 36.3272 26.9717 36.3252C26.9873 36.323 27.0038 36.3209 27.0215 36.3188C27.027 36.318 27.0327 36.317 27.0383 36.3163C27.0463 36.3153 27.0546 36.3149 27.0629 36.3139C27.2911 36.202 27.4735 36.1697 27.5095 36.1625L27.5992 36.1472C27.8873 36.1046 28.1707 36.1356 28.4303 36.2251C28.4708 36.2261 28.5098 36.2269 28.5516 36.2281C28.5869 36.2291 28.63 36.2302 28.6704 36.2325C28.6868 36.2334 28.7306 36.236 28.7833 36.2419C28.8058 36.2444 28.8677 36.2517 28.945 36.2675C28.9646 36.2715 28.9949 36.2789 29.0327 36.2887C29.0585 36.2886 29.0827 36.2884 29.1052 36.2882C29.2915 36.2871 29.3892 36.2852 29.4478 36.2833C29.4763 36.2823 29.4986 36.281 29.5217 36.2798C29.5413 36.2789 29.5794 36.2769 29.6149 36.2754C29.7257 36.2707 29.9008 36.2677 29.9737 36.266C29.9833 36.2648 29.9937 36.2628 30.0048 36.2616C30.0457 36.257 30.1187 36.2503 30.2099 36.2503C30.2296 36.2503 30.2829 36.2504 30.3504 36.2557C30.3834 36.2583 30.4472 36.264 30.5263 36.2784C30.5509 36.2828 30.616 36.2951 30.7053 36.3212C30.836 36.3103 30.9508 36.3 31.0178 36.2941C31.0962 36.2872 31.1389 36.283 31.1627 36.2803C31.1751 36.279 31.185 36.2779 31.1977 36.2764C31.2084 36.2751 31.2311 36.2721 31.2554 36.2695C31.3143 36.2632 31.3436 36.2594 31.3589 36.2572L31.4191 36.2473C31.4193 36.2473 31.4197 36.2474 31.4205 36.2473C31.4212 36.2472 31.4223 36.247 31.4235 36.2468C31.426 36.2464 31.4296 36.2456 31.4338 36.2448C31.4536 36.2413 31.4797 36.2371 31.5112 36.2325C31.5718 36.2237 31.6324 36.2173 31.6946 36.2118L31.875 36.1975C31.9368 36.193 31.9865 36.1894 32.0239 36.1862C32.0552 36.1835 32.0773 36.1814 32.0964 36.1793C32.1017 36.1787 32.1069 36.178 32.1131 36.1773C32.1188 36.1767 32.1268 36.1757 32.1343 36.1748C32.1489 36.1732 32.1729 36.1704 32.1999 36.1679L32.2615 36.163C32.2719 36.1622 32.275 36.1619 32.2792 36.1615C32.2864 36.1609 32.3105 36.1589 32.368 36.1522C32.4752 36.1397 32.7824 36.1006 33.0418 36.0782C33.3209 36.0541 33.5565 36.0479 33.6486 36.0447C33.6918 36.0432 33.7074 36.0424 33.7458 36.0408C33.7891 36.0389 33.8324 36.0377 33.8951 36.0368C33.9492 36.0361 34.021 36.0356 34.0805 36.0353C34.1332 36.0351 34.1783 36.0352 34.2126 36.0348C34.2434 36.0337 34.271 36.0323 34.2949 36.0314C34.3253 36.0303 34.3485 36.0297 34.3674 36.0289C34.3725 36.0287 34.3769 36.0286 34.3807 36.0284L34.4004 36.0265L34.4477 36.024C34.5255 36.0204 34.6196 36.021 34.6424 36.021ZM27.3059 39.8424C27.3025 39.8426 27.2988 39.8431 27.2951 39.8433C27.2977 39.8432 27.301 39.8431 27.3044 39.8429C27.3078 39.8426 27.3169 39.8419 27.3227 39.8414C27.3253 39.8411 27.3302 39.8401 27.3365 39.8394C27.3264 39.8404 27.3162 39.8416 27.3059 39.8424ZM26.9816 36.3247C26.9802 36.3249 26.9789 36.325 26.9776 36.3252C26.9579 36.3274 26.944 36.3291 26.9372 36.3301L26.9377 36.3311C26.941 36.3307 26.9443 36.33 26.9476 36.3296C26.9489 36.3294 26.9523 36.3289 26.9574 36.3281C26.9692 36.3267 26.98 36.3252 26.989 36.3242C26.9864 36.3245 26.9839 36.3244 26.9816 36.3247ZM26.9574 36.3281C26.9542 36.3285 26.9509 36.3292 26.9476 36.3296V36.3291C26.9479 36.3291 26.9484 36.3292 26.949 36.3291C26.9504 36.3289 26.9527 36.3285 26.9554 36.3281C26.9603 36.3275 26.9679 36.3264 26.9776 36.3252C26.9696 36.3264 26.9626 36.3274 26.9574 36.3281Z" fill="#F5F1E6"/>
<path d="M41.8784 35.6421C42.8539 35.6181 43.664 36.3896 43.688 37.365C43.712 38.3404 42.9406 39.1506 41.9652 39.1746C41.1707 39.1942 40.411 39.213 40.0033 39.2259C39.8022 39.2322 39.6955 39.2367 39.6281 39.2402C39.595 39.2419 39.5689 39.2434 39.5414 39.2451C39.515 39.2467 39.4791 39.2488 39.4398 39.251C39.3631 39.2553 39.272 39.2595 39.1963 39.2628C39.1137 39.2665 39.0497 39.2693 39.006 39.2717C38.9643 39.274 38.9547 39.2749 38.8912 39.2791C38.8313 39.283 38.7616 39.2872 38.6511 39.2919C38.4544 39.3004 38.0701 39.3133 37.9097 39.3195C37.8237 39.3229 37.784 39.3247 37.7333 39.3269C37.6778 39.3293 37.6267 39.3312 37.542 39.3333C37.3861 39.3372 37.1053 39.3418 36.9495 39.3442C36.9399 39.3443 36.9306 39.344 36.9219 39.3442C36.8659 39.3595 36.7922 39.3798 36.6986 39.4068C35.761 39.6768 34.782 39.1356 34.5119 38.1981C34.2418 37.2605 34.783 36.2815 35.7206 36.0114C35.8634 35.9702 35.9921 35.9342 36.0972 35.9069C36.1317 35.8979 36.3565 35.8349 36.5768 35.8191L36.6828 35.8142C36.7068 35.8136 36.7307 35.8134 36.7464 35.8132C36.7816 35.8128 36.8233 35.8123 36.8957 35.8112C37.0504 35.8089 37.317 35.8043 37.4552 35.8009C37.5174 35.7993 37.5461 35.7984 37.579 35.7969C37.6167 35.7953 37.675 35.7923 37.7722 35.7886C37.9784 35.7805 38.3026 35.7699 38.4993 35.7614C38.5854 35.7577 38.6284 35.7551 38.6595 35.7531C38.6866 35.7513 38.7465 35.7469 38.8148 35.7432C38.8813 35.7396 38.9686 35.7361 39.0415 35.7328C39.1213 35.7293 39.1907 35.7259 39.2431 35.723C39.3614 35.7164 39.4497 35.7078 39.8919 35.6939C40.3151 35.6806 41.091 35.6615 41.8784 35.6421Z" fill="#F5F1E6"/>
<path d="M47.7688 34.4924C48.7345 34.3533 49.63 35.0232 49.7691 35.989C49.9083 36.9548 49.2383 37.8502 48.2725 37.9894C48.3012 37.9852 48.247 37.9935 48.2109 37.9982C48.1732 38.0031 48.122 38.0091 48.0443 38.018C47.8717 38.0376 47.6416 38.0632 47.5011 38.0855C47.4481 38.0939 47.4185 38.1003 47.4059 38.1032C47.3992 38.1048 47.3929 38.1065 47.3848 38.1087C47.3799 38.1099 47.3751 38.1113 47.3665 38.1136C47.3598 38.1154 47.3455 38.1192 47.331 38.123C47.2969 38.1318 47.2583 38.1412 47.2137 38.1506C47.1736 38.159 47.1381 38.1651 47.1146 38.1693C47.0549 38.1799 47.034 38.1832 46.9278 38.2023C46.7443 38.2353 46.3308 38.3125 46.007 38.363C45.5608 38.4326 45.5599 38.4206 45.2365 38.4759C44.9743 38.5207 44.664 38.5862 44.4345 38.6312C44.322 38.6532 44.2401 38.6675 44.1698 38.678C44.1549 38.6802 44.1413 38.6818 44.1298 38.6834C44.1212 38.6855 44.1101 38.6886 44.082 38.6953C44.0519 38.7024 43.9925 38.7166 43.9253 38.7293C43.8617 38.7412 43.7465 38.7606 43.6068 38.7662C43.587 38.767 43.5666 38.7656 43.5457 38.7658C43.4894 38.7758 43.4183 38.7885 43.3288 38.8042C42.3677 38.9724 41.4523 38.3298 41.2841 37.3687C41.1159 36.4077 41.7585 35.4923 42.7195 35.324C42.8905 35.2941 43.0215 35.2704 43.0858 35.2594C43.1615 35.2465 43.2779 35.2263 43.4249 35.22H43.4368C43.4693 35.2133 43.5059 35.2049 43.5457 35.1983C43.5896 35.1911 43.6268 35.1863 43.6369 35.185C43.6479 35.1836 43.647 35.1836 43.6472 35.1835C43.6497 35.1831 43.677 35.179 43.7547 35.1638C43.9109 35.1332 44.3235 35.0476 44.6415 34.9932C44.8983 34.9494 45.3133 34.8946 45.4618 34.8715C45.7324 34.8293 46.0797 34.7646 46.3022 34.7246C46.3566 34.7148 46.3988 34.7077 46.4319 34.7019C46.4557 34.6978 46.4701 34.695 46.4812 34.693C46.5135 34.6846 46.5605 34.6722 46.6044 34.662C46.7 34.6397 46.8124 34.617 46.9485 34.5954C47.1863 34.5578 47.5184 34.5216 47.645 34.5072C47.7165 34.4991 47.7452 34.4955 47.754 34.4944C47.7573 34.4939 47.7621 34.4934 47.7688 34.4924ZM42.3123 38.2886C42.3189 38.2946 42.3266 38.3002 42.334 38.3068C42.3208 38.2949 42.3084 38.2841 42.2976 38.2738C42.3024 38.2784 42.307 38.2837 42.3123 38.2886ZM42.2404 38.2186C42.2472 38.2256 42.2568 38.2352 42.2685 38.2467C42.2528 38.2312 42.2406 38.2187 42.2335 38.2112L42.2261 38.2033C42.2285 38.2058 42.2337 38.2117 42.2404 38.2186ZM44.7978 35.7805C44.797 35.7796 44.7938 35.7761 44.7899 35.7721C44.7888 35.771 44.7873 35.77 44.7859 35.7686L44.7978 35.7805ZM44.7485 35.7307C44.7466 35.7289 44.745 35.7266 44.7431 35.7248C44.7204 35.7028 44.6907 35.6758 44.6548 35.6454C44.6954 35.68 44.7274 35.7099 44.7485 35.7307Z" fill="#F5F1E6"/>
<path d="M51.8155 33.8525C52.7912 33.8526 53.5822 34.6436 53.5822 35.6193C53.5822 36.5418 52.875 37.2982 51.9732 37.3781C51.9342 37.3841 51.8769 37.3932 51.7908 37.4062C51.5495 37.4426 51.1155 37.5074 50.8902 37.5422C50.8429 37.5496 50.8069 37.5551 50.7798 37.5595C50.7644 37.564 50.7483 37.5701 50.731 37.5748C50.5688 37.6188 50.4028 37.646 50.2233 37.664C49.8819 37.6981 49.802 37.6927 49.6258 37.7148C49.5734 37.7213 49.5715 37.7219 49.3517 37.7769C48.4052 38.0135 47.4461 37.4382 47.2094 36.4918C46.9728 35.5452 47.5484 34.5856 48.495 34.3489C48.6531 34.3094 48.8792 34.2474 49.1861 34.2089C49.3157 34.1927 49.4766 34.1801 49.5864 34.1715C49.7087 34.1619 49.7938 34.1553 49.8531 34.1498C49.8762 34.143 49.9025 34.134 49.9319 34.1266L50.0019 34.1099C50.0383 34.102 50.0723 34.0957 50.1005 34.0906C50.1554 34.0809 50.2328 34.0683 50.3495 34.0502C50.5828 34.0141 51.0371 33.9463 51.2629 33.9122C51.3774 33.8949 51.4351 33.8862 51.464 33.8816C51.4692 33.8808 51.4957 33.8769 51.497 33.8767C51.5036 33.8757 51.5389 33.8698 51.5823 33.8649L51.7514 33.8535C51.7843 33.8527 51.8138 33.8525 51.8155 33.8525ZM51.8155 37.386C51.8207 37.3859 51.8315 37.3858 51.8436 37.3855C51.8455 37.3854 51.8477 37.3851 51.85 37.385C51.8385 37.3852 51.827 37.386 51.8155 37.386Z" fill="#F5F1E6"/>
<path d="M58.5297 32.564C59.5053 32.5641 60.2964 33.355 60.2964 34.3307C60.2964 35.2898 59.5318 36.0697 58.579 36.0959C58.5282 36.1002 58.4806 36.1037 58.4439 36.1058C58.3675 36.1129 58.2869 36.1201 58.1413 36.1344C58.0749 36.1409 57.8548 36.1646 57.7104 36.1758C57.6235 36.1825 57.5538 36.1859 57.4985 36.1881C57.4797 36.1888 57.4621 36.1897 57.4497 36.1901C57.4286 36.1925 57.3995 36.196 57.3659 36.1994C57.3104 36.205 57.2805 36.2076 57.2214 36.2147C57.1645 36.2216 57.0796 36.233 56.9548 36.2532C56.6863 36.2966 56.2931 36.3706 56.0576 36.4242C55.8517 36.4711 55.8145 36.4892 55.573 36.5618C55.3561 36.627 55.0876 36.6984 54.9736 36.7294C54.9438 36.7374 54.9207 36.744 54.9002 36.7496C54.8808 36.7549 54.8597 36.7605 54.8395 36.7658C54.7903 36.779 54.75 36.7888 54.6985 36.8008C54.6457 36.8131 54.6167 36.8195 54.5669 36.8314C54.5221 36.8421 54.49 36.8505 54.4703 36.856C54.4543 36.8606 54.4439 36.864 54.4373 36.8664C54.4338 36.8676 54.43 36.8691 54.4255 36.8708C54.4213 36.8729 54.4167 36.8755 54.4112 36.8782C54.3957 36.8859 54.3338 36.917 54.2598 36.9472C54.2204 36.9634 54.1563 36.9882 54.0765 37.0118C54.0025 37.0337 53.8671 37.069 53.6944 37.0818C53.6231 37.0871 53.5666 37.0869 53.5456 37.0867C53.5189 37.0865 53.4969 37.0857 53.4859 37.0853C53.4657 37.0845 53.4464 37.083 53.442 37.0828C53.4272 37.082 53.4182 37.0814 53.4046 37.0808C53.3788 37.0797 53.3248 37.0779 53.2325 37.0779H52.7169C51.7412 37.0779 50.9502 36.2869 50.9502 35.3112C50.9503 34.3355 51.7413 33.5444 52.7169 33.5444H53.2325L53.234 33.5449C53.3178 33.5146 53.4094 33.484 53.5115 33.4552C53.6684 33.411 53.8533 33.3697 53.8965 33.3596C53.9093 33.3566 53.9151 33.3553 53.9177 33.3547C53.9196 33.3542 53.9225 33.3534 53.9291 33.3517L54.0488 33.3192C54.1881 33.2814 54.3969 33.2254 54.5556 33.1777C54.6898 33.1373 54.9123 33.0611 55.2723 32.979C55.603 32.9037 56.0745 32.8162 56.3908 32.7651C56.7369 32.7091 56.9189 32.6935 57.0105 32.6842C57.036 32.6817 57.0451 32.6804 57.076 32.6768C57.1121 32.6727 57.1703 32.6661 57.2456 32.6621C57.2765 32.6604 57.3055 32.6596 57.319 32.6591C57.3369 32.6585 57.3464 32.6581 57.3585 32.6576C57.3778 32.6569 57.402 32.6554 57.4364 32.6527C57.5349 32.645 57.6645 32.6307 57.7972 32.6177C57.9661 32.6012 58.0661 32.5927 58.1359 32.5861L58.1699 32.5827L58.2044 32.5807C58.2221 32.5798 58.2378 32.5791 58.2512 32.5783C58.2549 32.578 58.2584 32.578 58.2616 32.5778L58.2704 32.5763L58.3271 32.5714C58.3924 32.5658 58.4464 32.5649 58.4711 32.5645C58.4978 32.564 58.5233 32.564 58.5297 32.564ZM57.4709 36.1876C57.4715 36.1876 57.4722 36.1877 57.4728 36.1876C57.4763 36.1873 57.4792 36.1868 57.4812 36.1866C57.4788 36.1869 57.4753 36.1871 57.4709 36.1876ZM58.5297 36.0974H58.5312C58.5333 36.0974 58.5361 36.097 58.5396 36.0969C58.5363 36.0969 58.533 36.0974 58.5297 36.0974ZM58.5948 36.094C58.6042 36.0933 58.6148 36.0935 58.6263 36.0925L58.6258 36.091C58.6154 36.092 58.6051 36.093 58.5948 36.094Z" fill="#F5F1E6"/>
<path d="M64.7893 31.5829C65.7531 31.4307 66.6577 32.0886 66.8099 33.0524C66.9621 34.0162 66.3042 34.9208 65.3404 35.073C65.2639 35.0851 65.1317 35.1066 65.0269 35.1188C64.9629 35.1263 64.906 35.1305 64.8869 35.1321C64.865 35.134 64.8352 35.1368 64.779 35.143C64.6498 35.1571 64.4129 35.1859 64.291 35.2021C64.2436 35.2084 64.2252 35.2116 64.2229 35.212C64.2219 35.2122 64.2203 35.2124 64.217 35.213C64.2155 35.2132 64.2048 35.2153 64.1948 35.2169C64.1891 35.2179 64.1796 35.219 64.1672 35.2209C64.1241 35.23 64.0423 35.2469 63.9464 35.2613C63.9705 35.2577 63.9902 35.2541 64.0041 35.2514C64.0179 35.2487 64.0285 35.2468 64.0341 35.2455C64.0334 35.2457 64.0325 35.2458 64.0317 35.246C64.0255 35.2476 64.0183 35.2497 64.008 35.2524C63.9984 35.2549 63.986 35.2579 63.973 35.2613C63.9462 35.2681 63.9134 35.2763 63.8759 35.2854C63.6768 35.334 63.5017 35.3544 63.2297 35.3766C62.9007 35.4035 62.585 35.4226 62.3157 35.4461C62.2838 35.4489 62.2578 35.4514 62.2369 35.4535L62.2364 35.454C62.1613 35.4735 62.0961 35.486 62.0525 35.4935C62.007 35.5012 61.9615 35.5075 61.9194 35.5132C61.8448 35.5233 61.7309 35.5372 61.6276 35.5501C61.5143 35.5643 61.3831 35.5809 61.2391 35.6009C60.945 35.6419 60.5986 35.6966 60.4223 35.7242C60.4116 35.7258 60.4015 35.7271 60.3923 35.7286C60.3739 35.7321 60.3557 35.7369 60.3375 35.7399C60.2958 35.7469 60.25 35.7536 60.2 35.7587C60.1739 35.7613 60.1438 35.7636 60.1305 35.7646C60.1311 35.7645 60.1322 35.7642 60.1335 35.7641C60.1312 35.7643 60.118 35.7651 60.1019 35.7661C60.0938 35.7665 60.0777 35.7678 60.0576 35.7685C60.0448 35.7689 59.9954 35.7704 59.9323 35.768C59.9051 35.767 59.8297 35.7641 59.7347 35.7498C59.6881 35.7428 59.5977 35.7274 59.4872 35.6941C59.4233 35.6748 59.2174 35.6108 58.9884 35.4516C58.2922 35.2459 57.7675 34.6216 57.7249 33.8554C57.6708 32.8812 58.4164 32.0477 59.3906 31.9935C59.4537 31.99 59.5185 31.9867 59.7751 31.9635C60.043 31.9393 60.4986 31.895 60.7378 31.8703C60.7776 31.8662 60.9764 31.8431 61.1041 31.8407C61.1087 31.8406 61.3391 31.8296 61.6069 31.9009C61.6346 31.9082 61.6905 31.924 61.7651 31.9516C61.8537 31.9408 61.9362 31.9323 62.0081 31.926C62.2297 31.9066 62.7686 31.8692 62.9418 31.855C62.9972 31.8505 63.037 31.847 63.065 31.8442C63.0701 31.8437 63.0747 31.8431 63.0788 31.8427C63.102 31.8368 63.1229 31.8311 63.1606 31.8215C63.1836 31.8157 63.2189 31.8071 63.2577 31.7983C63.2963 31.7897 63.3548 31.7772 63.4244 31.7668C63.4153 31.7681 63.4133 31.769 63.4446 31.7623C63.4524 31.7607 63.4894 31.7526 63.523 31.7461C63.5421 31.7424 63.5717 31.7372 63.6068 31.7318C63.6113 31.7311 63.6165 31.7311 63.622 31.7303C63.6265 31.7295 63.6321 31.7284 63.6383 31.7273C63.6836 31.7197 63.7414 31.7109 63.8251 31.6997C63.9707 31.6804 64.2346 31.6482 64.394 31.6307C64.4819 31.6211 64.5396 31.6158 64.5843 31.612C64.6316 31.6079 64.6208 31.6086 64.6173 31.609C64.6184 31.6089 64.6223 31.6086 64.6296 31.6076C64.6395 31.6062 64.6526 31.6041 64.6691 31.6016C64.7029 31.5965 64.7417 31.5904 64.7893 31.5829ZM64.0159 35.2381C64.0483 35.2358 64.0755 35.2332 64.0958 35.2307C64.1045 35.2297 64.1125 35.2283 64.1199 35.2273C64.0907 35.231 64.0552 35.2353 64.0159 35.2381ZM63.6639 31.7239C63.6498 31.7258 63.6377 31.728 63.6289 31.7293C63.6625 31.7245 63.71 31.7175 63.766 31.7135C63.7258 31.7164 63.6911 31.7203 63.6639 31.7239Z" fill="#F5F1E6"/>
<path d="M70.7407 30.1442C71.6962 30.0225 72.5753 30.6894 72.712 31.6462C72.85 32.6121 72.1789 33.5071 71.213 33.6451C71.2095 33.6456 71.1555 33.6526 71.0917 33.6589C71.072 33.6619 71.0297 33.6691 70.971 33.6835C70.9362 33.6921 70.8889 33.7049 70.8359 33.72C70.7847 33.7346 70.7369 33.7491 70.7028 33.7595C70.6861 33.7645 70.673 33.7687 70.6614 33.7723C70.6523 33.7751 70.6351 33.7803 70.621 33.7846C70.6042 33.7897 70.5808 33.7966 70.5529 33.8043C70.5238 33.8124 70.4969 33.8192 70.4726 33.825C70.462 33.8276 70.4524 33.8301 70.4465 33.8314C70.4385 33.8333 70.436 33.8336 70.4307 33.8349C70.4234 33.8366 70.4172 33.838 70.41 33.8398C70.3958 33.8433 70.3678 33.8508 70.3198 33.8645C70.2438 33.8861 69.9705 33.968 69.7637 34.0242C69.5724 34.0762 69.2708 34.1506 69.2378 34.1592C69.2216 34.1635 69.2136 34.1659 69.2111 34.1666C69.2097 34.167 69.2094 34.1671 69.2077 34.1676C69.206 34.1682 69.2032 34.1688 69.1978 34.1706C69.194 34.1718 69.1834 34.1753 69.1752 34.178C69.1545 34.1846 69.128 34.1928 69.0953 34.2026C69.0661 34.2114 69.0352 34.2208 69.011 34.2278C68.9843 34.2355 68.9607 34.242 68.9351 34.2494C68.8843 34.2643 68.8378 34.2785 68.7956 34.2923C68.7048 34.3221 68.6021 34.3609 68.5343 34.3875C68.5182 34.3938 68.5055 34.399 68.4885 34.4057C68.4731 34.4118 68.451 34.4206 68.4269 34.4299C68.3705 34.4514 68.3163 34.4702 68.2514 34.4915C68.1964 34.5095 68.1302 34.5302 68.0803 34.5457C68.0224 34.5638 67.9831 34.5764 67.9576 34.5847C67.9482 34.5877 67.9439 34.5887 67.9428 34.5891C67.9417 34.5895 67.9396 34.5904 67.9324 34.593C67.9164 34.5988 67.8751 34.6141 67.8171 34.6344C67.7177 34.6692 67.5089 34.7404 67.3389 34.7887C67.2282 34.8202 67.138 34.8407 67.0688 34.8548C67.0626 34.856 67.0565 34.8571 67.0511 34.8582C66.9348 34.9015 66.8406 34.9328 66.7794 34.9504C66.4307 35.0507 66.0931 35.0429 65.865 35.0446C64.8894 35.0516 64.0927 34.2663 64.0855 33.2907C64.0784 32.315 64.8637 31.5182 65.8394 31.5111C65.8707 31.5109 65.8983 31.5109 65.9227 31.5106C66.0677 31.4595 66.1866 31.4312 66.1958 31.4288L66.2791 31.4096C66.2994 31.4052 66.3172 31.4013 66.3279 31.3992C66.336 31.3976 66.3502 31.3948 66.3526 31.3943C66.3579 31.3933 66.3609 31.3927 66.3629 31.3923C66.3653 31.3918 66.3659 31.392 66.3718 31.3904C66.3967 31.3833 66.442 31.369 66.5014 31.3494C66.5575 31.331 66.6121 31.3127 66.6493 31.2997C66.6847 31.2873 66.6974 31.2824 66.7301 31.2706C66.7702 31.2561 66.8117 31.2415 66.8711 31.2223C67.0533 31.1634 67.0173 31.1779 67.1511 31.134L67.1644 31.1296H67.1639C67.1667 31.1286 67.1717 31.1267 67.1866 31.1207C67.2 31.1154 67.2212 31.1072 67.2458 31.0976C67.3418 31.06 67.5136 30.9945 67.6939 30.9354C67.8524 30.8833 68.0641 30.823 68.0774 30.819C68.0829 30.8174 68.0878 30.8161 68.0956 30.8136C68.0988 30.8126 68.1264 30.8037 68.1449 30.7978C68.2029 30.7796 68.2631 30.7617 68.3436 30.7407C68.4088 30.7236 68.5055 30.6998 68.5802 30.681C68.665 30.6597 68.7525 30.6376 68.8375 30.6145C69.0357 30.5606 69.1638 30.5196 69.3516 30.4661C69.4354 30.4422 69.5022 30.4248 69.5582 30.4109C69.5806 30.4053 69.5998 30.4008 69.6154 30.3971C69.63 30.3925 69.6493 30.3867 69.6735 30.3793C69.7605 30.3529 69.9496 30.2961 70.126 30.2526C70.3207 30.2047 70.4762 30.1786 70.5712 30.1644L70.7102 30.1467C70.7212 30.1455 70.7315 30.145 70.7407 30.1442ZM71.0676 33.6619H71.069C71.0714 33.6616 71.0738 33.6611 71.076 33.6609C71.0732 33.6611 71.0704 33.6616 71.0676 33.6619ZM70.7703 30.1412C70.7643 30.1417 70.7587 30.1427 70.7536 30.1432C70.7608 30.1426 70.7675 30.1417 70.7733 30.1412H70.7703Z" fill="#F5F1E6"/>
<path d="M78.9558 27.4743C79.7951 27.1032 80.7907 27.4378 81.2283 28.261C81.6862 29.1226 81.3588 30.1924 80.4972 30.6503C80.3747 30.7154 80.2614 30.7633 80.1487 30.8022L80.1255 30.81L80.1024 30.8174C80.0929 30.8204 80.084 30.8231 80.0767 30.8253C80.0691 30.8277 80.0633 30.8296 80.058 30.8312C80.0478 30.8345 80.0429 30.8361 80.0398 30.8372C80.037 30.8381 80.0308 30.84 80.0136 30.8465L80.0131 30.846C79.946 30.8718 79.7826 30.9358 79.636 30.9855C79.5482 31.0154 79.4723 31.0382 79.4147 31.055C79.3878 31.0629 79.3613 31.0704 79.3462 31.0748C79.3376 31.0772 79.3315 31.0793 79.327 31.0807C79.3237 31.0816 79.322 31.082 79.3215 31.0822C79.3174 31.0836 79.3095 31.0867 79.2949 31.092C79.2797 31.0976 79.2333 31.1145 79.1796 31.1314C79.122 31.1496 79.0352 31.1742 78.9287 31.1936C78.8673 31.2047 78.7856 31.2202 78.663 31.2404C78.5762 31.2547 78.4407 31.2761 78.2119 31.3286C77.9781 31.3823 77.6583 31.4657 77.2531 31.6032C76.8318 31.7462 76.3249 31.944 76.0011 32.0759C75.7054 32.1964 75.4917 32.2936 75.0921 32.424C74.733 32.5411 74.2049 32.6936 73.9248 32.7715C73.8521 32.7917 73.7906 32.8061 73.7384 32.8198C73.2865 33.1788 72.6686 33.3102 72.0802 33.1141C71.1546 32.8055 70.6542 31.8052 70.9627 30.8796L71.0056 30.7637C71.2346 30.2036 71.6693 29.9251 71.7849 29.8498L71.952 29.7468C72.1142 29.6526 72.2586 29.5852 72.3641 29.5447C72.361 29.5458 72.3582 29.5466 72.3567 29.5471C72.3582 29.5466 72.3649 29.544 72.372 29.5412C72.3884 29.5348 72.4129 29.5257 72.4425 29.5151C72.5039 29.4932 72.5741 29.4705 72.6545 29.4495C72.683 29.4421 72.7068 29.4369 72.7205 29.4337C72.7321 29.4311 72.7456 29.4278 72.7476 29.4273C72.7551 29.4257 72.7612 29.4245 72.7718 29.4219C72.7959 29.4161 72.8551 29.4011 72.9788 29.3667C73.2434 29.2932 73.712 29.1573 73.9963 29.0645C74.2401 28.985 74.2866 28.9592 74.6681 28.8038C75.0214 28.6598 75.6011 28.4328 76.1174 28.2576C76.6498 28.0769 77.0861 27.9618 77.4212 27.8849C77.7611 27.8069 77.9849 27.7711 78.0902 27.7538C78.1298 27.7473 78.1567 27.742 78.1843 27.737C78.1952 27.7333 78.2067 27.7292 78.2188 27.7252C78.2411 27.7179 78.2649 27.7103 78.2903 27.7025C78.3204 27.6933 78.3495 27.6847 78.3682 27.6793C78.3904 27.673 78.4043 27.6689 78.4209 27.6641C78.4506 27.6554 78.4754 27.6482 78.4998 27.6399C78.5314 27.6292 78.5741 27.6135 78.6235 27.5951C78.672 27.5769 78.716 27.5598 78.7551 27.5448L78.7616 27.5423C78.8415 27.512 78.9054 27.4906 78.9558 27.4743ZM74.2713 32.1109C74.2732 32.1065 74.2754 32.1021 74.2772 32.0976C74.2754 32.1021 74.2732 32.1064 74.2713 32.1109Z" fill="#F5F1E6"/>
<path d="M81.2242 26.0651C82.1912 25.9358 83.0797 26.6145 83.2093 27.5814C83.3388 28.5485 82.66 29.4375 81.693 29.567C81.6888 29.5676 81.6835 29.5684 81.6698 29.5705C81.6644 29.5713 81.6534 29.5729 81.6427 29.5744C81.632 29.576 81.6134 29.5786 81.592 29.5813L81.5565 29.5857L81.5205 29.5887C81.5153 29.5892 81.4824 29.5919 81.446 29.5946C81.4032 29.5978 81.342 29.6022 81.2425 29.6084L81.2336 29.6089L81.2252 29.6094C81.0345 29.6194 80.6788 29.6359 80.332 29.6523C79.3575 29.6983 78.5302 28.9458 78.4839 27.9713C78.4378 26.9967 79.1907 26.1689 80.1654 26.1228C80.513 26.1064 80.8521 26.0903 81.033 26.0809C81.112 26.076 81.1548 26.0732 81.1784 26.0715C81.1915 26.0696 81.2073 26.0674 81.2242 26.0651ZM81.1429 26.0765C81.1416 26.0766 81.1406 26.0769 81.1399 26.077C81.1403 26.0769 81.1408 26.077 81.1414 26.077C81.1428 26.0767 81.1444 26.0767 81.1463 26.0765C81.145 26.0766 81.1438 26.0763 81.1429 26.0765Z" fill="#F5F1E6"/>
<path d="M81.2498 26.0566C82.2255 26.0568 83.0166 26.8477 83.0166 27.8234C83.0166 28.799 82.2255 29.59 81.2498 29.5901H81.2558C81.2502 29.5901 81.2383 29.5903 81.2134 29.5906C81.1641 29.5912 81.0684 29.5922 80.8796 29.5945C80.5006 29.5993 79.7545 29.6087 79.3673 29.6147C79.1877 29.6175 79.0971 29.6195 79.0523 29.6206C79.0382 29.6221 79.0243 29.6236 79.0114 29.6251C79.001 29.6262 78.9919 29.6271 78.9843 29.628C78.9723 29.6302 78.9561 29.6333 78.9409 29.6359C78.8756 29.6471 78.7938 29.6598 78.6846 29.6734C78.6769 29.6743 78.6709 29.6749 78.6555 29.6773C78.6426 29.6793 78.6373 29.6804 78.616 29.6837C78.5987 29.6865 78.5778 29.6895 78.5534 29.6931C78.4826 29.7037 78.4199 29.7119 78.3587 29.7187C78.3345 29.7228 78.3085 29.7277 78.2808 29.7316C77.4336 29.909 76.5631 29.4411 76.2598 28.6037C75.9277 27.6863 76.4023 26.6733 77.3196 26.3411C77.4326 26.3002 77.5859 26.256 77.778 26.2351L77.8658 26.2168L77.9649 26.208C77.9633 26.2081 77.9647 26.2079 77.9718 26.207C77.9807 26.2059 77.9982 26.2037 78.0289 26.1991C78.0573 26.1948 78.065 26.1933 78.1068 26.1868C78.1447 26.1808 78.1911 26.1738 78.2493 26.1666C78.3028 26.1599 78.3313 26.1553 78.3464 26.1528C78.3597 26.1505 78.3624 26.1502 78.3868 26.1459C78.4029 26.143 78.4457 26.1353 78.4958 26.1286C78.5707 26.1185 78.6724 26.107 78.7639 26.0985C78.7334 26.1014 78.7755 26.0977 78.7831 26.0971C78.8054 26.0952 78.8261 26.0937 78.8448 26.0926C78.8773 26.0908 78.9106 26.0896 78.9419 26.0887C79.0069 26.0868 79.1167 26.0848 79.3126 26.0818C79.7063 26.0757 80.4582 26.0663 80.8353 26.0616C81.2017 26.057 81.2281 26.0566 81.2498 26.0566ZM78.1172 29.7488L78.1177 29.7498C78.1212 29.7495 78.1249 29.7486 78.1285 29.7483C78.1248 29.7486 78.121 29.7485 78.1172 29.7488ZM78.968 29.63L78.967 29.6305C78.968 29.6304 78.969 29.6301 78.97 29.63C78.9692 29.6301 78.9685 29.6299 78.968 29.63Z" fill="#F5F1E6"/>
<path d="M83.8889 26.1338C84.8456 25.9425 85.7763 26.5627 85.9676 27.5194C86.159 28.4762 85.5383 29.4068 84.5815 29.5982C84.5662 29.6012 84.5518 29.6042 84.4893 29.6164L84.4888 29.6169C84.3949 29.6353 84.1905 29.6741 84.0028 29.6933C83.9503 29.6993 83.9102 29.7031 83.8904 29.7042C83.8548 29.7061 83.8253 29.7064 83.8105 29.7066C83.7946 29.7069 83.7798 29.7071 83.773 29.7071C83.7664 29.7072 83.7629 29.7071 83.7597 29.7071C83.695 29.7128 83.6347 29.718 83.5078 29.7278C83.4863 29.7295 83.4656 29.7301 83.4472 29.7313C83.4185 29.7396 83.3775 29.7519 83.322 29.7697C83.1813 29.8149 82.95 29.8942 82.8261 29.9378C82.7731 29.9565 82.7501 29.9651 82.7413 29.9684C82.7379 29.9697 82.7354 29.9708 82.73 29.9728C82.7259 29.9744 82.7165 29.9779 82.7063 29.9817C82.6822 29.9907 82.6445 30.0044 82.5974 30.0192C82.5918 30.0209 82.586 30.0225 82.552 30.0339C82.5189 30.0452 82.4723 30.0609 82.4066 30.0823C82.2981 30.1175 82.0982 30.1811 81.9713 30.2193C81.9007 30.2405 81.8508 30.2546 81.8106 30.2656C81.7654 30.2781 81.772 30.2762 81.7677 30.2775C81.7622 30.2791 81.7484 30.2833 81.7175 30.2932C81.7053 30.2971 81.6871 30.3026 81.6716 30.3075C81.6707 30.3078 81.6696 30.3077 81.6687 30.308C81.6668 30.3088 81.6649 30.31 81.6627 30.311C81.6461 30.3182 81.6031 30.3374 81.5612 30.3549C81.5186 30.3726 81.4486 30.401 81.3655 30.4283C81.3675 30.4277 81.3689 30.4273 81.3295 30.4411C81.3002 30.4514 81.2535 30.4674 81.2004 30.4845C81.1049 30.5151 80.9278 30.5687 80.7183 30.5984C80.7536 30.5934 80.7764 30.5884 80.771 30.5895C80.7675 30.5902 80.7651 30.5909 80.7513 30.5939C80.7407 30.5962 80.7201 30.6002 80.6976 30.6048C80.6582 30.6127 80.5671 30.6307 80.4555 30.6408C80.3499 30.6503 80.1455 30.6615 79.899 30.6112C79.558 30.5415 78.9121 30.2891 78.6011 29.5479C78.577 29.4906 78.5286 29.3684 78.4951 29.2028C78.271 28.9067 78.1377 28.538 78.1377 28.1381C78.1377 27.1623 78.9287 26.3714 79.9044 26.3714H79.8788C79.8806 26.3713 79.886 26.3712 79.8965 26.3709C79.929 26.3698 79.9931 26.3677 80.1223 26.363C80.381 26.3535 80.8831 26.3348 81.1452 26.324C81.2736 26.3188 81.3384 26.3155 81.3759 26.3137C81.4064 26.3122 81.4507 26.31 81.5045 26.3088H81.6874C81.7226 26.3097 81.7743 26.3118 81.8328 26.3166C81.8591 26.3188 81.9411 26.3253 82.0472 26.3457L82.1606 26.3709L82.2405 26.3935C82.2467 26.3954 82.2527 26.3984 82.2592 26.4004C82.3899 26.3587 82.4907 26.3288 82.5707 26.3073C82.6123 26.2961 82.6447 26.2884 82.6659 26.2831C82.6683 26.2825 82.6709 26.2816 82.6728 26.2811C82.6739 26.2809 82.6749 26.2809 82.6757 26.2807C82.6735 26.2812 82.6703 26.2821 82.6664 26.2831C82.6598 26.2849 82.6468 26.2882 82.6304 26.293C82.7773 26.2501 82.9021 26.2335 82.9557 26.2269C83.0208 26.2189 83.0783 26.2145 83.113 26.2121C83.1476 26.2098 83.1848 26.2077 83.2017 26.2067C83.2246 26.2054 83.2332 26.205 83.2367 26.2047C83.3529 26.1958 83.3981 26.1918 83.4645 26.186L83.6168 26.1761C83.6355 26.1754 83.6528 26.1755 83.6685 26.1752C83.7038 26.1692 83.7518 26.1608 83.8095 26.1495V26.149C83.8704 26.1371 83.8799 26.1355 83.8889 26.1338Z" fill="#F5F1E6"/>
<path d="M75.536 26.0857C76.2583 25.8402 77.085 26.0849 77.5473 26.7398C78.1099 27.5369 77.9195 28.6394 77.1223 29.2021C77.0607 29.2456 76.848 29.3997 76.5377 29.5023C76.2511 29.5969 75.9914 29.6138 75.8175 29.6171C75.6806 29.6198 75.1877 29.6196 75.1062 29.6206C75.0334 29.6215 75.0043 29.6225 74.9578 29.625C74.9276 29.6266 74.8919 29.629 74.8346 29.6324C74.779 29.6358 74.7089 29.64 74.6177 29.6452C74.2399 29.6668 73.5933 29.7005 73.2192 29.7226C72.8785 29.7428 72.7959 29.753 72.3935 29.7635C71.9957 29.774 71.3462 29.7843 70.9354 29.7995C70.7476 29.8065 70.6322 29.8138 70.545 29.8202C70.4768 29.8253 70.3445 29.8369 70.2305 29.8434C69.9871 29.8572 69.6862 29.8593 69.4413 29.8616C68.4657 29.8706 67.6674 29.0873 67.6583 28.1117C67.6492 27.136 68.433 26.3378 69.4087 26.3287C69.6844 26.3261 69.8891 26.3234 70.0298 26.3154C70.0831 26.3124 70.3965 26.2837 70.8052 26.2685C71.2351 26.2527 71.9701 26.2398 72.3008 26.2311C72.6268 26.2225 72.6152 26.2185 73.0107 26.1951C73.373 26.1736 74.0873 26.1365 74.4166 26.1177C74.7318 26.0997 74.8226 26.0907 75.0613 26.0876C75.2541 26.0852 75.399 26.0858 75.536 26.0857Z" fill="#F5F1E6"/>
<path d="M60.8631 26.0668C61.1763 26.0719 61.7448 26.0862 62.0629 26.0973C62.2872 26.1052 62.4304 26.112 62.5544 26.1254L62.6741 26.1412L62.6973 26.1451C62.7032 26.1461 62.7043 26.1464 62.7057 26.1466C62.7055 26.1466 62.7046 26.1463 62.7037 26.1461C62.7024 26.1459 62.7013 26.1457 62.7008 26.1456C62.7018 26.1458 62.719 26.1482 62.7703 26.1535C62.8075 26.1574 62.9649 26.1789 63.8439 26.1762C64.7319 26.1735 66.2483 26.1474 67.0264 26.1343C67.4134 26.1278 67.6089 26.1246 67.7042 26.123C67.7091 26.1229 67.7137 26.123 67.718 26.123C67.7459 26.1226 67.7747 26.121 67.8047 26.121H67.8141C67.8147 26.121 67.8273 26.1213 67.8412 26.1215C67.8454 26.1215 67.8538 26.1217 67.8644 26.122C67.8675 26.1221 67.9009 26.1229 67.9427 26.1259C67.9553 26.1268 67.9769 26.1285 68.0034 26.1313C68.0234 26.1335 68.0786 26.1397 68.1483 26.153C68.1853 26.1605 68.2784 26.1828 68.3341 26.1989C68.4271 26.2302 68.6928 26.3541 68.8567 26.4601C69.1845 26.7705 69.5829 27.8792 69.4304 28.6059C69.1993 28.9871 68.72 29.4061 68.5491 29.4957C68.4595 29.5336 68.3128 29.5834 68.2572 29.5987C68.2208 29.6077 68.1581 29.6214 68.132 29.6263C68.0801 29.6358 68.0387 29.6405 68.0206 29.6426C67.9819 29.6471 67.9515 29.6498 67.9413 29.6505C67.9166 29.6522 67.897 29.6527 67.892 29.6529C67.8839 29.6533 67.8774 29.6538 67.8737 29.6539C67.8663 29.6542 67.8601 29.6543 67.857 29.6544C67.8397 29.6549 67.8075 29.6552 67.7643 29.6559C67.7435 29.6563 67.7178 29.6564 67.6864 29.6569C67.6544 29.6583 67.6183 29.6607 67.572 29.6638C67.4131 29.6746 67.2217 29.6856 67.087 29.6953C66.9938 29.7021 66.9347 29.7081 66.6458 29.7264C66.342 30.0575 65.9126 30.2737 65.4282 30.2967C65.2355 30.3059 64.9534 30.3177 64.6804 30.2869C64.5129 30.2679 64.376 30.2387 64.2762 30.2149C64.2319 30.2043 64.1884 30.193 64.1717 30.1888C64.1475 30.1826 64.1506 30.1836 64.1609 30.1858C64.1119 30.1752 64.0667 30.1639 64.0352 30.1557C64.0022 30.1473 63.9691 30.1386 63.943 30.1316C63.8824 30.1154 63.8493 30.1064 63.8212 30.0996C63.7886 30.0916 63.7571 30.0844 63.7251 30.0774C63.7079 30.0736 63.6943 30.0707 63.6753 30.0665C63.6595 30.0631 63.6354 30.0582 63.6117 30.0527C63.5844 30.0464 63.5586 30.0397 63.5329 30.033C63.5086 30.0267 63.4885 30.0213 63.4791 30.0187C63.4659 30.015 63.4651 30.0147 63.4555 30.0123C63.3636 29.9893 63.2312 29.9556 63.1153 29.9177C63.0933 29.9104 62.9134 29.8543 62.7249 29.7446C62.7012 29.7308 62.67 29.7108 62.6327 29.686C62.5416 29.6802 62.4705 29.6749 62.4065 29.6682C62.3327 29.6606 62.2737 29.6539 62.2201 29.6465C62.203 29.6442 62.1843 29.6407 62.1679 29.6382C62.1343 29.6361 62.0666 29.6333 61.9392 29.6288C61.6437 29.6184 61.0972 29.6045 60.8054 29.5997C60.7346 29.5986 60.6832 29.5979 60.6462 29.5977C60.6196 29.5976 60.6025 29.5976 60.5924 29.5977C60.5196 29.6031 60.4649 29.6046 60.4337 29.6046C59.458 29.6046 58.667 28.8136 58.667 27.8379C58.667 26.8866 59.4189 26.1114 60.3608 26.0732C60.3684 26.0726 60.3762 26.0712 60.3844 26.0707C60.4329 26.0675 60.4788 26.066 60.52 26.0653C60.5992 26.0639 60.7068 26.0642 60.8631 26.0668ZM60.6028 29.5967C60.6074 29.5965 60.6127 29.5966 60.6186 29.5963C60.6337 29.5953 60.6493 29.5939 60.6649 29.5923C60.6748 29.5913 60.692 29.5896 60.6762 29.5913C60.6503 29.5942 60.6256 29.595 60.6028 29.5967Z" fill="#F5F1E6"/>
<path d="M58.9122 1.46277C59.6021 0.772826 60.721 0.772826 61.4109 1.46277C62.1007 2.15269 62.1007 3.2711 61.4109 3.96102L61.3892 3.98271C60.6993 4.67252 59.5809 4.67252 58.891 3.98271C58.201 3.29277 58.201 2.17392 58.891 1.48397L58.9122 1.46277Z" fill="#F5F1E6"/>
<path d="M58.2442 27.5657V11.0747C58.2442 7.22519 58.244 5.79371 58.2452 5.07353C58.2456 4.81168 58.2474 4.64126 58.2481 4.52735C58.2395 4.49718 58.2287 4.46309 58.22 4.42481C58.2063 4.36407 58.1914 4.28476 58.1826 4.19165C58.1578 3.92959 58.2001 3.65384 58.2003 3.65237C58.3214 2.68428 59.2045 1.9978 60.1726 2.11881C61.0331 2.22639 61.6702 2.93585 61.7165 3.77215C61.7537 3.92012 61.7854 4.10637 61.7835 4.31982C61.7833 4.34452 61.7826 4.3779 61.7825 4.37897C61.7823 4.39076 61.7815 4.41257 61.7811 4.45636C61.7802 4.54626 61.7792 4.72181 61.7786 5.07945C61.7774 5.79571 61.7776 7.22267 61.7776 11.0747V27.5657C61.7776 28.5413 60.9865 29.3323 60.0109 29.3324C59.0352 29.3324 58.2442 28.5414 58.2442 27.5657Z" fill="#F5F1E6"/>
<path d="M59.0094 0.56543C59.9851 0.565469 60.7761 1.35644 60.7761 2.33215C60.7761 3.30785 59.9851 4.09883 59.0094 4.09887H29.6959C28.7202 4.09887 27.9292 3.30788 27.9292 2.33215C27.9292 1.35642 28.7202 0.56543 29.6959 0.56543H59.0094Z" fill="#F5F1E6"/>
<path d="M27.9238 5.78507V3.63928C27.9238 2.66355 28.7148 1.87256 29.6905 1.87256C30.6663 1.87256 31.4573 2.66355 31.4573 3.63928V5.78507C31.4572 6.76076 30.6662 7.55179 29.6905 7.55179C28.7148 7.55179 27.9239 6.76076 27.9238 5.78507Z" fill="#F5F1E6"/>
<path d="M27.5927 6.23401C27.8091 5.30774 28.7234 4.71516 29.6621 4.90503C30.6184 5.09858 31.2369 6.03089 31.0433 6.98723C31.0258 7.07361 31.0054 7.14927 30.9856 7.21744C30.9775 7.26805 30.9664 7.3286 30.9541 7.39096C30.954 7.3922 30.9542 7.39355 30.9541 7.3949C30.9531 7.40972 30.9504 7.45234 30.9482 7.48511C30.9363 7.65845 30.9149 7.88932 30.8545 8.21615C30.834 8.327 30.8094 8.44142 30.783 8.55579C31.4354 9.09267 31.6259 10.0364 31.1927 10.7947C30.8849 11.3334 30.5574 11.9078 30.2753 12.3668C30.135 12.5949 29.989 12.8222 29.8504 13.015C29.7814 13.1109 29.6991 13.2196 29.6078 13.3241C29.536 13.4062 29.3746 13.5847 29.1425 13.7376C28.939 13.8717 28.2334 14.2704 27.3832 13.8934C26.6089 13.55 26.4004 12.8491 26.3554 12.6837C26.2445 12.2764 26.2872 11.8783 26.2972 11.7723C26.33 11.426 26.4152 11.0101 26.4505 10.8293C26.5763 10.1854 26.6509 9.89435 26.735 9.61316C26.7831 9.45219 26.8421 9.27316 26.8809 9.15225C26.9022 9.08572 26.9183 9.03484 26.9302 8.99549C26.9445 8.94809 26.9421 8.95054 26.9356 8.97972C26.9909 8.7333 27.0836 8.47985 27.1407 8.32755C27.2374 8.06903 27.2423 8.06824 27.3068 7.89327C27.3089 7.88644 27.3166 7.86112 27.3285 7.8139C27.3437 7.75319 27.3615 7.67266 27.3797 7.57384C27.4104 7.40824 27.4178 7.31515 27.4226 7.24455C27.424 7.22492 27.4305 7.1183 27.4369 7.04688C27.4447 6.96076 27.4595 6.84475 27.4892 6.70971H27.4882C27.4903 6.69958 27.493 6.68544 27.4966 6.66238C27.4984 6.65036 27.5004 6.6374 27.503 6.6195C27.5052 6.60436 27.5092 6.57841 27.5128 6.55443L27.5291 6.44647L27.5587 6.34197C27.5689 6.30568 27.5784 6.27518 27.5853 6.25422C27.5877 6.24694 27.5906 6.24016 27.5927 6.23401Z" fill="#F5F1E6"/>
<path d="M27.4197 4.99093C27.6027 4.07602 28.4726 3.45435 29.4068 3.59047C30.3722 3.73125 31.0406 4.62833 30.8999 5.5938C30.8895 5.66504 30.8706 5.79212 30.8309 5.93541C30.8219 5.9677 30.8117 5.99818 30.8023 6.0271C30.8018 6.03142 30.8015 6.03633 30.8008 6.04189C30.7962 6.08138 30.7898 6.13624 30.7801 6.21097C30.7672 6.31082 30.7473 6.42359 30.7357 6.48899C30.72 6.57786 30.7116 6.62299 30.7067 6.65462C30.702 6.6842 30.7023 6.68647 30.7032 6.67729C30.7033 6.67594 30.7033 6.67613 30.7022 6.68863C30.7013 6.69957 30.6995 6.72357 30.6968 6.75124C30.676 6.96439 30.6476 7.13324 30.6307 7.22003C30.6337 7.20494 30.6361 7.19224 30.6371 7.18601C30.6364 7.19103 30.6326 7.21615 30.6288 7.24024C30.6197 7.29655 30.6072 7.36941 30.5879 7.47044C30.5658 7.58524 30.5508 7.70442 30.5149 7.91853C30.5016 7.99782 30.4924 8.04816 30.4853 8.08613C30.4794 8.1182 30.4782 8.12599 30.4755 8.14282C30.4664 8.19922 30.4499 8.31612 30.4414 8.38239C30.4378 8.41083 30.4376 8.41611 30.4326 8.45831C30.4278 8.49854 30.4218 8.54579 30.4114 8.62344C30.3921 8.76674 30.3468 9.09596 30.2807 9.40279C30.2351 9.61488 30.1793 9.80755 30.1403 9.93862C30.117 10.2503 30.0113 10.5599 29.8164 10.8328C29.8144 10.8356 29.8054 10.8477 29.7957 10.8609C29.7862 10.8738 29.7673 10.8999 29.7429 10.9304C29.723 10.9555 29.6726 11.0177 29.602 11.0882C29.5832 11.107 29.3499 11.3552 28.9616 11.4988L27.6011 12.0016L26.8429 10.7653C26.5873 10.3485 26.5836 9.94414 26.5822 9.91003C26.577 9.78863 26.5855 9.69156 26.5901 9.64581C26.5999 9.54769 26.6158 9.46485 26.6246 9.42202C26.6442 9.32598 26.6711 9.22097 26.699 9.11787L26.7049 9.09569L26.7118 9.0735C26.7609 8.90929 26.7945 8.80692 26.8262 8.65992C26.8605 8.50058 26.8909 8.29142 26.9095 8.15317C26.9179 8.09023 26.9214 8.06071 26.9238 8.04078C26.9259 8.02282 26.9305 7.98348 26.9366 7.93578C26.9476 7.84908 26.9692 7.6921 26.9864 7.58481C26.9968 7.51976 27.0053 7.47316 27.0115 7.43939C27.0167 7.4115 27.0218 7.38382 27.0303 7.3334C27.0379 7.28782 27.0892 6.9525 27.1175 6.80497C27.1302 6.73902 27.1364 6.70168 27.1397 6.68124C27.1419 6.66727 27.1425 6.66251 27.1456 6.64279C27.1475 6.63084 27.1533 6.59148 27.1619 6.54716C27.1627 6.54212 27.1647 6.53229 27.1668 6.51807C27.1708 6.4911 27.1753 6.45328 27.1796 6.40913C27.1799 6.40652 27.1804 6.40408 27.1816 6.38941C27.1827 6.37635 27.185 6.35103 27.188 6.32139C27.1947 6.2556 27.2032 6.18893 27.2156 6.10942C27.2277 6.03197 27.2461 5.93073 27.256 5.87428C27.2622 5.83962 27.267 5.81143 27.2708 5.78802C27.275 5.76266 27.2762 5.75451 27.2758 5.75795C27.2826 5.70488 27.2869 5.66693 27.291 5.63175C27.2946 5.60113 27.3006 5.54836 27.3083 5.49422C27.306 5.51026 27.3046 5.52322 27.3073 5.49965C27.3088 5.48612 27.3136 5.4433 27.3206 5.39514C27.3309 5.32439 27.356 5.17299 27.4197 4.99093Z" fill="#F5F1E6"/>
<path d="M25.2946 21.0315C25.2946 20.307 25.2943 19.178 25.2931 18.6196C25.2919 18.0563 25.2897 18.0985 25.2872 17.6406C25.2848 17.2041 25.2824 16.3505 25.2813 15.9192C25.2807 15.7086 25.2802 15.589 25.2803 15.5243C25.2803 15.4965 25.2804 15.4529 25.2818 15.4105C25.2826 15.3855 25.2842 15.3473 25.2882 15.3015C25.2927 15.2493 25.2986 15.2068 25.303 15.1783L25.3384 14.9944C25.3811 14.8121 25.4478 14.6278 25.5593 14.3866L25.5815 14.3965C25.5792 14.405 25.5763 14.4136 25.5741 14.4226C25.566 14.4556 25.5569 14.4995 25.5484 14.5518C25.5636 14.4823 25.6221 14.3001 25.7027 14.1081C25.7202 13.9884 25.7487 13.8006 25.8304 13.4185C25.8494 13.3297 25.873 13.2304 25.8965 13.1252C25.8946 13.0532 25.8965 12.9997 25.8979 12.9748C25.9038 12.8749 25.9169 12.7971 25.9206 12.7757C25.9263 12.7426 25.932 12.7154 25.9354 12.6993C25.9473 12.6437 25.9609 12.5927 25.967 12.5701L26.0251 12.367C26.0273 12.3582 26.0306 12.3449 26.0345 12.3276C26.0423 12.2926 26.05 12.2546 26.0567 12.2206C26.0579 12.2144 26.0581 12.214 26.0606 12.1965C26.0624 12.1844 26.0758 12.0807 26.1035 11.9643L26.1252 11.8677C26.1339 11.8285 26.1528 11.7441 26.1784 11.6552C26.2643 11.3574 26.3877 11.1383 26.4076 11.0997L26.4781 10.9745C26.5824 10.8068 26.793 10.5332 27.1609 10.3405C27.4463 10.1911 27.8092 10.102 28.2069 10.1532C28.3446 10.1709 28.4701 10.2043 28.5835 10.2454C28.6707 10.2489 28.7589 10.2585 28.8472 10.2755C29.8054 10.4593 30.4329 11.3852 30.2492 12.3434C30.2154 12.5197 30.1844 12.6829 30.1678 12.7732C30.1659 12.7835 30.1642 12.7933 30.1624 12.8033C30.1607 12.8125 30.1585 12.8241 30.1565 12.8348C30.1525 12.8566 30.1466 12.8881 30.1392 12.9236C30.1221 13.006 30.104 13.0761 30.0845 13.1449C30.0555 13.2475 29.9943 13.4493 29.9455 13.5831C29.9325 13.6188 29.9027 13.6997 29.8583 13.7912C29.8373 13.8342 29.79 13.9275 29.7153 14.0352C29.6856 14.078 29.5245 14.3165 29.2145 14.5163C29.2139 14.5195 29.2135 14.5226 29.213 14.5256C29.2001 14.6015 29.1989 14.6152 29.1854 14.7056C29.173 14.7885 29.1605 14.8599 29.1514 14.9101C29.1461 14.9391 29.1436 14.9525 29.1405 14.9698C29.1384 14.9819 29.1377 14.9871 29.1376 14.988C29.1375 14.9889 29.1372 14.9899 29.1371 14.991C29.1366 14.9958 29.1364 15.0002 29.1356 15.0082C29.1349 15.0152 29.1338 15.0249 29.1326 15.0353C29.1303 15.0568 29.127 15.0869 29.1223 15.1216C29.1176 15.156 29.1129 15.1864 29.11 15.2049C29.1085 15.214 29.107 15.2238 29.106 15.2296C29.1049 15.2364 29.1042 15.2412 29.1036 15.2453C29.1025 15.2521 29.1018 15.2556 29.1016 15.2572C29.1015 15.2579 29.1011 15.2617 29.1006 15.2685C29.1 15.2766 29.0993 15.2872 29.0986 15.3001C29.0974 15.3264 29.0966 15.3567 29.0962 15.3873C29.0954 15.4498 29.0967 15.5107 29.0976 15.5416C29.0981 15.5555 29.0992 15.5926 29.0981 15.6392C29.0976 15.6617 29.0961 15.7078 29.0907 15.7654C29.0885 15.789 29.0751 15.9576 29.0079 16.1593C28.9907 16.2109 28.9369 16.3686 28.8167 16.5556C28.8178 16.9402 28.8192 17.3586 28.8206 17.6213C28.8229 18.0299 28.8253 18.0535 28.8265 18.6117C28.8277 19.175 28.828 20.3091 28.828 21.0315V23.1734C28.828 23.4539 28.8278 23.7449 28.8265 23.8946C28.8261 23.9419 28.8258 24.0467 28.8186 24.1366C28.8172 24.155 28.8142 24.1861 28.8093 24.2244C28.8058 24.2517 28.7947 24.3361 28.7679 24.4408C28.7551 24.4905 28.7256 24.5981 28.6678 24.7267C28.6345 24.8007 28.477 25.1584 28.0856 25.439C27.8541 25.6049 27.5158 25.7601 27.0943 25.7692C26.6757 25.7783 26.3373 25.6396 26.1079 25.4937C25.7177 25.2454 25.5412 24.9157 25.5031 24.8455C25.3934 24.6434 25.35 24.464 25.3453 24.4462C25.3307 24.3898 25.322 24.3444 25.3182 24.3244C25.3105 24.2832 25.3059 24.2491 25.3054 24.2455C25.2863 24.1126 25.2834 23.9811 25.2936 23.8527C25.2946 23.7179 25.2946 23.4546 25.2946 23.1734V21.0315ZM28.8029 23.7418C28.8025 23.7392 28.8014 23.732 28.7999 23.7225C28.7985 23.7138 28.7957 23.6963 28.7915 23.6742C28.7913 23.6731 28.7908 23.672 28.7905 23.6708C28.7949 23.6943 28.7994 23.7179 28.8029 23.7418ZM29.0587 14.8663C29.0588 14.8631 29.0592 14.8605 29.0592 14.8584C29.0594 14.8466 29.0592 14.8369 29.0592 14.8323L29.0587 14.8663ZM25.6219 14.2639C25.6135 14.287 25.598 14.3338 25.5815 14.3965L25.5593 14.3866C25.5819 14.3377 25.6031 14.2936 25.6184 14.2614C25.6359 14.2247 25.6429 14.209 25.6475 14.1988C25.6436 14.2078 25.6336 14.2317 25.6219 14.2639Z" fill="#F5F1E6"/>
<path d="M26.1771 15.3597C26.4575 15.258 26.8103 15.212 27.1886 15.3021C27.5578 15.39 27.8293 15.5782 28.0069 15.7497C28.318 16.0503 28.4288 16.3798 28.4584 16.4704C28.5022 16.6039 28.5204 16.7142 28.5284 16.7701C28.5554 16.9578 28.5441 17.1113 28.5437 17.1196C28.5411 17.1677 28.537 17.2071 28.5343 17.2305C28.5274 17.2917 28.5172 17.3502 28.5082 17.3996C28.5075 17.4117 28.5071 17.4249 28.5062 17.438C28.5037 17.4774 28.4993 17.5343 28.4914 17.5992C28.4901 17.6104 28.4899 17.6182 28.485 17.6662C28.4831 17.6852 28.4802 17.7134 28.4767 17.7436C28.4732 17.7731 28.4676 17.8164 28.4594 17.8659C28.4585 17.8717 28.4534 17.9015 28.4486 17.928C28.4413 17.9675 28.4324 18.0114 28.421 18.0601C28.3986 18.155 28.3702 18.2538 28.3352 18.3623C28.3255 18.3923 28.3151 18.4268 28.3071 18.455C28.3065 18.457 28.3056 18.459 28.3051 18.4609C28.2926 18.5293 28.2798 18.6014 28.2642 18.6837C28.2446 18.7872 28.2302 18.8579 28.2179 18.9144C28.2117 18.9425 28.2071 18.9643 28.2041 18.9775C28.2007 18.992 28.2014 18.9883 28.2026 18.9829V18.9834C28.2025 18.9839 28.2025 18.9852 28.2021 18.9873C28.2013 18.9922 28.1998 19.0006 28.1972 19.0184C28.193 19.0464 28.1816 19.1275 28.1676 19.2111C28.1411 19.3689 28.0819 19.6303 28.07 19.6853C28.0516 19.7702 28.0366 19.8319 28.0256 19.8766C28.0134 19.9267 28.0151 19.9198 28.0162 19.9141C28.0104 19.9424 28.0029 19.9754 28 19.988C27.9949 20.0101 27.9902 20.0306 27.9837 20.059C27.9715 20.1126 27.9563 20.1815 27.9393 20.2606C27.9223 20.3398 27.9072 20.4086 27.8753 20.5337C27.8358 20.7568 27.7586 20.9553 27.6598 21.1292C27.1781 21.9777 26.0993 22.275 25.2508 21.7932C24.5276 21.3824 24.2056 20.5384 24.4247 19.7726C24.4258 19.7676 24.4264 19.7626 24.4276 19.7578L24.433 19.7351L24.4389 19.713C24.4541 19.6566 24.4599 19.6323 24.4631 19.6183C24.465 19.61 24.4671 19.6005 24.4705 19.5848C24.4723 19.5766 24.474 19.568 24.4764 19.5567C24.4787 19.5458 24.4813 19.5328 24.4843 19.5187C24.5054 19.4203 24.5244 19.3363 24.5385 19.2742C24.5452 19.2447 24.5522 19.2161 24.5558 19.2003C24.5615 19.1753 24.56 19.1808 24.5573 19.1939C24.5716 19.1251 24.588 19.0606 24.5937 19.0371C24.6008 19.0082 24.6077 18.9796 24.6169 18.9371C24.6231 18.9083 24.6308 18.8734 24.6376 18.8424C24.6448 18.8095 24.6519 18.7767 24.6588 18.7448C24.6657 18.7126 24.6718 18.684 24.6765 18.6605C24.681 18.6384 24.6826 18.6277 24.683 18.626C24.689 18.5901 24.6914 18.572 24.7012 18.5052C24.7101 18.4445 24.7233 18.3567 24.7456 18.2514C24.7515 18.2233 24.7576 18.1984 24.7599 18.1888C24.7624 18.1777 24.7635 18.1715 24.7653 18.1631C24.7689 18.1465 24.7769 18.1089 24.7924 18.0271C24.8089 17.9399 24.9002 17.4405 24.9339 17.264C24.9607 17.1229 24.9891 16.9856 25.0083 16.8913C25.0094 16.8836 25.0095 16.8756 25.0108 16.8677H25.0113V16.8662C25.0114 16.8653 25.0115 16.864 25.0117 16.8622C25.0121 16.8596 25.0133 16.8523 25.0142 16.8465C25.0162 16.8333 25.0197 16.8113 25.0241 16.7858C25.0325 16.7362 25.0473 16.6545 25.0734 16.5586L25.0931 16.493C25.1016 16.4658 25.1124 16.4335 25.1256 16.3984C25.136 16.3708 25.2095 16.1657 25.3746 15.9493C25.4389 15.8649 25.694 15.5349 26.1771 15.3597ZM24.3798 20.0329V20.0319C24.3805 20.0252 24.382 20.0161 24.3832 20.0053C24.3817 20.0175 24.3804 20.0274 24.3798 20.0329ZM28.3071 18.4505C28.3068 18.452 28.3069 18.4535 28.3066 18.455C28.3073 18.4522 28.3083 18.4493 28.3091 18.4461C28.31 18.4421 28.3121 18.432 28.3135 18.4259C28.3138 18.4246 28.3141 18.4228 28.3145 18.4209C28.312 18.4309 28.3096 18.4407 28.3071 18.4505ZM24.3793 20.0363C24.3792 20.0371 24.3793 20.0378 24.3793 20.0383C24.3794 20.0378 24.3795 20.0356 24.3798 20.0329C24.3796 20.0344 24.3794 20.0355 24.3793 20.0363Z" fill="#F5F1E6"/>
<path d="M25.2181 19.4871C25.6659 19.2478 26.2128 19.2018 26.7196 19.4088C27.6229 19.7777 28.0561 20.809 27.6873 21.7123C27.6179 21.8821 27.5515 22.0446 27.5113 22.1446C27.505 22.1602 27.5012 22.1709 27.499 22.1772C27.4979 22.1802 27.4969 22.1822 27.4965 22.1836L27.495 22.1905C27.4913 22.207 27.4758 22.2781 27.4472 22.365C27.4427 22.3787 27.4311 22.4107 27.4137 22.4552C27.3949 22.5505 27.379 22.6346 27.3673 22.6938C27.3512 22.776 27.335 22.8611 27.3181 22.9388C27.2985 23.0283 27.2778 23.1113 27.25 23.2187C27.1902 23.4504 27.0886 23.8333 27.0356 24.0484C27.0241 24.0951 27.0163 24.1259 27.0119 24.1455C27.003 24.2235 26.9946 24.2922 26.9893 24.3328C26.9861 24.3566 26.9842 24.3683 26.9833 24.3757C26.9838 24.3717 26.9845 24.3636 26.9853 24.353C26.9814 24.4047 26.9763 24.4488 26.973 24.4753C26.9695 24.5028 26.9661 24.5281 26.9641 24.5418C26.9631 24.5492 26.9622 24.5543 26.9617 24.5581C26.9602 24.5748 26.9579 24.6023 26.9543 24.6365C26.9468 24.7059 26.9368 24.7803 26.9222 24.8721C26.8957 25.039 26.8464 25.3105 26.8108 25.4878C26.7901 25.5908 26.772 25.6699 26.7586 25.7288C26.7504 25.78 26.7403 25.8315 26.7275 25.8826C26.7251 25.8922 26.723 25.9016 26.7211 25.9092C26.7192 25.917 26.7177 25.9232 26.7172 25.9255L26.7167 25.9265C26.7165 25.927 26.7161 25.9283 26.7157 25.9299C26.7153 25.9314 26.7148 25.9351 26.7137 25.9393C26.7129 25.9424 26.7098 25.9522 26.7063 25.9649C26.7046 25.9712 26.7014 25.9848 26.6964 26.0014C26.6944 26.0082 26.6797 26.0573 26.657 26.1178C26.6525 26.1297 26.6123 26.2408 26.5392 26.3697C26.524 26.3964 26.3935 26.6398 26.1301 26.8582C25.9573 26.9845 25.4503 27.2072 25.1136 27.2614C24.6815 27.2354 23.9558 26.9212 23.687 26.6773C23.5438 26.4945 23.3668 26.1651 23.3183 26.031C23.2929 25.9427 23.2606 25.791 23.2513 25.7288C23.2353 25.6081 23.2355 25.5127 23.236 25.4759C23.237 25.3931 23.2439 25.3286 23.2458 25.3103C23.2509 25.2626 23.2573 25.2253 23.2586 25.2171C23.261 25.2028 23.263 25.1914 23.2641 25.1856C23.2662 25.1739 23.2675 25.1647 23.268 25.1619L23.2685 25.161C23.2769 25.1122 23.2843 25.0756 23.2877 25.0599C23.2946 25.0284 23.3032 24.9901 23.307 24.9736C23.3169 24.9308 23.3295 24.8751 23.3464 24.7912C23.3735 24.6563 23.4143 24.4322 23.4327 24.317C23.4382 24.282 23.4405 24.2654 23.441 24.2608C23.4408 24.2629 23.4404 24.2637 23.441 24.2564C23.4414 24.2517 23.4441 24.2234 23.447 24.1948L23.4583 24.0991C23.4612 24.0778 23.4645 24.0549 23.4657 24.0464C23.4675 24.0339 23.4675 24.0329 23.4672 24.0356C23.4669 24.0373 23.4645 24.058 23.4622 24.0888C23.4661 24.037 23.4708 23.9907 23.4746 23.9592C23.4784 23.9268 23.4828 23.8946 23.4859 23.8709C23.4928 23.8183 23.4978 23.7808 23.5027 23.7378C23.5032 23.7312 23.5125 23.6392 23.5322 23.5303C23.5498 23.4334 23.574 23.3271 23.6047 23.2025C23.6636 22.9634 23.7797 22.524 23.8285 22.3349C23.8549 22.2325 23.8614 22.2053 23.8655 22.1865C23.8678 22.1759 23.8707 22.1616 23.8763 22.1333C23.8834 22.0974 23.8879 22.0736 23.9 22.012C23.944 21.788 24.0149 21.4355 24.0513 21.2213C24.0652 21.1393 24.0707 21.0924 24.073 21.07C24.0746 21.0547 24.075 21.0477 24.0774 21.0212C24.0783 21.0113 24.0809 20.9878 24.0838 20.9615C24.0865 20.9381 24.0925 20.8831 24.105 20.8161L24.1228 20.7318C24.1272 20.7131 24.138 20.6682 24.1553 20.6125C24.164 20.5847 24.1803 20.5361 24.2041 20.477C24.2216 20.4336 24.2744 20.3049 24.3727 20.1576C24.422 20.0838 24.5209 19.9464 24.6798 19.8076C24.7831 19.7173 24.9641 19.5833 25.2181 19.4871ZM26.7418 25.8038C26.7409 25.8078 26.7406 25.8105 26.7403 25.8116C26.7405 25.8108 26.7407 25.8073 26.7418 25.8018C26.7417 25.8024 26.7419 25.8031 26.7418 25.8038ZM26.7443 25.7934C26.7431 25.7998 26.7424 25.806 26.7413 25.8116L26.7418 25.8102C26.7425 25.8061 26.7433 25.7994 26.7448 25.7909C26.7446 25.7918 26.7444 25.7926 26.7443 25.7934Z" fill="#F5F1E6"/>
<path d="M22.8322 26.1124C22.8322 25.1367 23.6233 24.3458 24.5989 24.3457C25.5747 24.3457 26.3657 25.1367 26.3657 26.1124C26.3657 26.2651 26.3654 26.4911 26.3356 26.7197C26.3126 26.8959 26.2781 27.0449 26.2498 27.154C26.2467 27.182 26.244 27.2139 26.2395 27.2501C26.2174 27.4279 26.1717 27.7331 26.1463 27.8969C26.1315 27.9921 26.1199 28.0581 26.1098 28.1133C26.1052 28.1386 26.1012 28.1614 26.099 28.1729C26.0966 28.1855 26.0959 28.1893 26.0955 28.1917C26.094 28.2007 26.091 28.22 26.0857 28.2553C26.0845 28.2632 26.083 28.2713 26.0817 28.2799C26.0805 28.2883 26.0791 28.2976 26.0778 28.3065C26.0752 28.3239 26.0717 28.3452 26.0684 28.3662C26.0649 28.3885 26.0617 28.4073 26.06 28.4174C26.0582 28.4281 26.0582 28.4299 26.0581 28.4307C26.058 28.4309 26.0577 28.4312 26.0576 28.4317C26.0575 28.4324 26.0574 28.4341 26.0571 28.4367C26.0563 28.4422 26.0548 28.4528 26.0526 28.4707C26.0428 28.5532 26.0254 28.7187 26.0167 28.8103C26.007 28.9113 26.0075 28.9257 25.9979 29.0474C25.9972 29.0574 25.9968 29.0691 25.9964 29.0938C25.9963 29.1026 25.9961 29.1064 25.996 29.1194C25.9959 29.1286 25.9954 29.1463 25.995 29.1652C25.9946 29.182 25.994 29.218 25.991 29.2614C25.9895 29.284 25.9865 29.3175 25.9817 29.3575C25.9772 29.3947 25.9687 29.4579 25.9516 29.5349C25.9484 29.5495 25.8895 29.8511 25.7588 30.1309C25.6257 30.4161 25.4448 30.6078 25.3127 30.7229C25.1809 30.8379 25.0577 30.9117 24.979 30.9541C24.8303 31.0342 24.6999 31.0769 24.6611 31.0897C24.6404 31.0965 24.6192 31.1022 24.6019 31.1074C24.5578 31.1241 24.5143 31.1404 24.4708 31.1538C24.4105 31.1723 24.1904 31.2397 23.9118 31.241L22.432 31.2484L22.1658 29.7923C22.1176 29.5284 22.1422 29.3168 22.1495 29.2564C22.1601 29.1683 22.1754 29.0987 22.183 29.0652C22.1916 29.0275 22.1999 28.9971 22.2042 28.9814C22.2086 28.9655 22.2125 28.9506 22.2131 28.9483L22.2402 28.8616C22.3041 28.6746 22.3973 28.505 22.5123 28.3558C22.5229 28.253 22.5346 28.1333 22.5444 28.0517C22.5521 27.9869 22.5592 27.9352 22.567 27.8851C22.5706 27.8622 22.5736 27.8429 22.5754 27.8323C22.5773 27.8208 22.5782 27.8169 22.5789 27.8126C22.5816 27.7956 22.5843 27.7764 22.5912 27.7303C22.5966 27.6942 22.6047 27.6397 22.6139 27.5868C22.6371 27.4534 22.6311 27.5072 22.6548 27.3546C22.6802 27.191 22.718 26.9342 22.7327 26.8159C22.7399 26.7578 22.7417 26.7336 22.7465 26.6877C22.7489 26.6645 22.7642 26.481 22.8298 26.2716C22.8301 26.2707 22.8305 26.2699 22.8308 26.2692C22.8288 26.2861 22.8298 26.2868 22.8308 26.2613C22.8318 26.2317 22.8322 26.1874 22.8322 26.1124ZM22.531 28.7753L23.1502 28.9128L22.921 28.8059L22.531 28.7753ZM22.921 28.8059L23.1502 28.9128L22.531 28.7753L22.921 28.8059Z" fill="#F5F1E6"/>
<path d="M20.447 38.9095C20.4862 38.8892 20.5671 38.8615 20.6604 38.8986C20.742 38.9312 20.7794 38.9934 20.7906 39.0135L20.8123 39.0623L20.8142 39.0692C20.8988 39.0214 21.0071 39.025 21.0898 39.0869C21.1944 39.1654 21.2196 39.3086 21.1534 39.4182C21.1721 39.5133 21.1306 39.5841 21.1214 39.5991C21.1051 39.6255 21.0872 39.6424 21.0804 39.6489C21.0564 39.6721 21.0309 39.6868 21.0292 39.6878C21.0132 39.6975 20.9948 39.7071 20.9789 39.715C20.9449 39.7316 20.8983 39.7522 20.8502 39.7702C20.7377 39.8123 20.6375 39.8017 20.5648 39.7702C20.5483 39.763 20.5339 39.754 20.5205 39.745C20.4679 39.7822 20.4016 39.7999 20.3331 39.7884C20.1957 39.7653 20.103 39.635 20.1261 39.4976L20.1295 39.4803C20.129 39.483 20.1287 39.4867 20.1281 39.4912C20.1353 39.4346 20.1574 39.373 20.1749 39.3186L20.1788 39.3058L20.1848 39.294C20.1898 39.2827 20.1909 39.278 20.203 39.2481C20.2127 39.224 20.2257 39.1932 20.2444 39.1584C20.2679 39.1148 20.3173 39.0209 20.3795 38.9593L20.4031 38.9381C20.4145 38.929 20.4292 38.9187 20.447 38.9095Z" fill="#F5F1E6"/>
<path d="M87.2959 26.1782C87.328 26.181 87.3817 26.1896 87.4354 26.2231C87.4624 26.2399 87.5102 26.2762 87.5394 26.3424C87.5703 26.4123 87.5647 26.4789 87.5517 26.5243C87.5507 26.5278 87.5485 26.5312 87.5473 26.5346C87.562 26.5631 87.5836 26.6058 87.6114 26.6697C87.6439 26.7443 87.6713 26.8112 87.71 26.8683C87.7488 26.9255 87.7996 26.9747 87.8465 27.0217C87.8726 27.0478 87.8763 27.0516 87.886 27.0601C87.894 27.0671 87.9086 27.0791 87.9466 27.1055C88.0173 27.1545 88.1818 27.2617 88.2936 27.344C88.4139 27.4326 88.491 27.5039 88.548 27.5619C88.5754 27.5899 88.5976 27.6143 88.6165 27.6349C88.6355 27.6555 88.6534 27.6742 88.6766 27.6975C88.7285 27.7493 88.8007 27.8175 88.8388 27.8498C88.8441 27.8543 88.8526 27.8591 88.8694 27.868C88.8723 27.8696 88.8794 27.8735 88.8847 27.8764C88.8888 27.8787 88.9023 27.8861 88.9167 27.8961C88.9237 27.901 88.9393 27.9127 88.9561 27.9301C88.9676 27.9421 89.0122 27.9888 89.0247 28.0667C89.0418 28.1741 88.9891 28.2593 88.9335 28.3043C88.8914 28.3383 88.8493 28.3498 88.8369 28.3531C88.8174 28.3582 88.7997 28.3611 88.7876 28.363C88.7766 28.3646 88.7622 28.3663 88.7545 28.3674C88.7362 28.3699 88.7167 28.3733 88.6909 28.3792C88.6375 28.3915 88.5406 28.4162 88.4474 28.4433C88.3555 28.4701 88.2735 28.4971 88.1876 28.5315C88.0996 28.5668 88.0074 28.6097 87.953 28.6365C87.9041 28.6607 87.8739 28.6781 87.7706 28.7258C87.6682 28.7731 87.489 28.853 87.3832 28.8988C87.2586 28.9527 87.2103 28.9679 86.9701 29.0225C86.7324 29.0765 86.3164 29.1671 86.0113 29.2463C85.9663 29.258 85.924 29.2698 85.8841 29.2808C85.7831 29.3203 85.7194 29.3461 85.6746 29.3641C85.6221 29.3853 85.5853 29.3998 85.5435 29.4124C85.4674 29.4354 85.3793 29.4496 85.3463 29.4553C85.3413 29.4562 85.3257 29.4588 85.3148 29.4603C85.3113 29.4607 85.3035 29.4617 85.2941 29.4622C85.2894 29.4625 85.2808 29.463 85.2704 29.4627C85.263 29.4625 85.2387 29.4616 85.2093 29.4534C85.2001 29.4508 85.0737 29.4184 85.0343 29.2788C84.9941 29.1363 85.0892 29.0418 85.0949 29.0358C85.1164 29.0133 85.137 28.9998 85.1432 28.9959C85.1522 28.9902 85.1601 28.9862 85.1644 28.9841C85.1845 28.9739 85.2091 28.9654 85.2147 28.9634C85.228 28.9586 85.2465 28.9522 85.2694 28.9441C85.3103 28.9298 85.3696 28.9094 85.4484 28.884C85.4342 28.8452 85.4289 28.8035 85.4345 28.7622C85.4429 28.702 85.4704 28.6608 85.4834 28.6434C85.4905 28.6338 85.4988 28.6258 85.506 28.6183C85.4976 28.6138 85.4883 28.6099 85.4799 28.604C85.4159 28.5589 85.3901 28.4976 85.3803 28.4586C85.3753 28.4385 85.3738 28.4195 85.3734 28.4029C85.3513 28.4189 85.3336 28.4319 85.3192 28.4408C85.3103 28.4464 85.2926 28.4574 85.2709 28.4665C85.2603 28.4709 85.2388 28.4791 85.2108 28.4837C85.1866 28.4877 85.1241 28.4946 85.0555 28.4606C84.9724 28.4194 84.9328 28.346 84.9199 28.287C84.9094 28.2385 84.9158 28.1988 84.9184 28.1845C84.9238 28.1557 84.9337 28.1321 84.9347 28.1298L84.952 28.0933C84.971 28.0584 84.9963 28.026 85.0308 27.9883C85.0753 27.9397 85.1476 27.8686 85.2694 27.7576C85.3759 27.6606 85.5306 27.5239 85.6815 27.3909C85.662 27.3916 85.6399 27.391 85.6164 27.3859C85.5715 27.3762 85.5139 27.3506 85.4695 27.2947C85.4265 27.2406 85.4157 27.1826 85.4143 27.1439C85.412 27.0784 85.4353 27.0292 85.441 27.0172C85.4504 26.9972 85.4612 26.9807 85.4686 26.9699C85.4959 26.9295 85.5347 26.8864 85.5657 26.855C85.57 26.8506 85.5748 26.8463 85.5795 26.8417C85.5627 26.8365 85.5481 26.8327 85.5361 26.8284C85.5234 26.8238 85.5056 26.8166 85.4873 26.8072C85.4702 26.7984 85.4335 26.7779 85.401 26.7387C85.3956 26.7322 85.3379 26.6665 85.3424 26.5647C85.348 26.4382 85.437 26.3748 85.4666 26.3572C85.4983 26.3382 85.5273 26.3305 85.5366 26.3281C85.5497 26.3246 85.5618 26.3221 85.5701 26.3207C85.5997 26.3157 85.6459 26.3109 85.7106 26.3049C85.8471 26.2922 86.1103 26.27 86.3588 26.2694C86.5236 26.2691 86.6769 26.2795 86.7995 26.2901C86.8716 26.2638 86.935 26.2421 86.9908 26.226C87.0693 26.2033 87.1385 26.1876 87.1973 26.1807C87.2268 26.1772 87.2608 26.1752 87.2959 26.1782Z" fill="#F5F1E6"/>
<path d="M61.4028 0.793786C61.5419 0.786743 61.6603 0.893714 61.6675 1.03286C61.6721 1.12476 61.6263 1.20641 61.5551 1.2542C61.5588 1.25936 61.5628 1.26428 61.5664 1.26948L61.5694 1.27392L61.5723 1.27786L61.6404 1.38976L61.6448 1.39764L61.6487 1.40602C61.6699 1.44998 61.6808 1.49052 61.6857 1.50856C61.7224 1.64304 61.6427 1.78194 61.5082 1.81862C61.3739 1.85519 61.2354 1.77597 61.1987 1.64165C61.1973 1.63646 61.1961 1.63294 61.1952 1.62982L61.1947 1.62884C61.1778 1.59983 61.1645 1.57805 61.1484 1.55292C61.1302 1.52718 61.1138 1.50569 61.1001 1.48933C61.0929 1.48076 61.087 1.47402 61.0823 1.46912C61.0785 1.4651 61.0761 1.46283 61.0754 1.46222C61.0325 1.42503 61.0008 1.40124 60.9793 1.38779C60.9782 1.38711 60.9773 1.38638 60.9764 1.38581C60.9384 1.38412 60.8862 1.38212 60.8433 1.37842C60.8203 1.37644 60.7793 1.37264 60.7442 1.36363C60.7344 1.36113 60.7154 1.35577 60.6939 1.34589C60.6847 1.34168 60.6151 1.3117 60.5731 1.23251C60.5461 1.18144 60.5344 1.11663 60.5514 1.05012C60.5668 0.990401 60.5997 0.951144 60.6204 0.930825C60.6582 0.893957 60.6985 0.878227 60.7087 0.874136C60.7897 0.841647 60.9011 0.824931 61.0429 0.813997C61.1277 0.807462 61.2682 0.800685 61.4028 0.793786Z" fill="#F5F1E6"/>
</svg>
